
<svg xmlns="http://www.w3.org/2000/svg" version="1.1" xmlns:xlink="http://www.w3.org/1999/xlink" preserveAspectRatio="none" x="0px" y="0px" width="1024px" height="1024px" viewBox="0 0 1024 1024">
<defs>
<g id="Layer0_0_MEMBER_0_MEMBER_0_FILL">
<path fill="#AA7B61" stroke="none" d="
M 470 267.25
Q 471.8 266.2 471.8 264.1
L 471.8 255.85
Q 471.8 253.75 470 252.7
L 406.3 215.9
Q 404.5 214.85 402.65 215.9
L 338.95 252.7
Q 337.15 253.75 337.15 255.85
L 337.15 264.1
Q 337.15 266.2 338.95 267.25
L 402.65 304.05
Q 404.5 305.1 406.3 304.05
L 470 267.25 Z"/>
</g>

<g id="Layer0_0_MEMBER_0_MEMBER_1_FILL">
<path fill="#8C644F" stroke="none" d="
M 470 262.9
Q 471.8 261.85 471.8 259.75
L 471.8 256.9
Q 471.8 254.8 470 253.75
L 406.3 216.95
Q 404.5 215.9 402.65 216.95
L 338.95 253.75
Q 337.15 254.8 337.15 256.9
L 337.15 259.75
Q 337.15 261.85 338.95 262.9
L 402.65 299.7
Q 404.5 300.75 406.3 299.7
L 470 262.9 Z"/>
</g>

<g id="Layer0_0_MEMBER_0_MEMBER_2_FILL">
<path fill="#6C9C38" stroke="none" d="
M 470 261.85
Q 471.8 260.8 471.8 258.75
L 471.8 255.85
Q 471.8 253.75 470 252.7
L 406.3 215.9
Q 404.5 214.85 402.65 215.9
L 338.95 252.7
Q 337.15 253.75 337.15 255.85
L 337.15 258.75
Q 337.15 260.8 338.95 261.85
L 402.65 298.65
Q 404.5 299.7 406.3 298.65
L 470 261.85 Z"/>
</g>

<g id="Layer0_0_MEMBER_0_MEMBER_3_FILL">
<path fill="#5A852F" stroke="none" d="
M 470 259.7
Q 471.8 258.65 471.8 256.55
L 471.8 255.85
Q 471.8 253.75 470 252.7
L 406.3 215.9
Q 404.5 214.85 402.65 215.9
L 338.95 252.7
Q 337.15 253.75 337.15 255.85
L 337.15 256.55
Q 337.15 258.65 338.95 259.7
L 402.65 296.5
Q 404.5 297.55 406.3 296.5
L 470 259.7 Z"/>
</g>

<g id="Layer0_0_MEMBER_0_MEMBER_4_FILL">
<path fill="#000000" fill-opacity="0.2" stroke="none" d="
M 0 13.65
L 1.05 14.3
Q 2.9 15.35 4.7 14.3
L 5.75 13.65 5.75 0 0 0 0 13.65 Z"/>
</g>

<g id="Layer0_0_MEMBER_0_MEMBER_5_FILL">
<path fill="#80B844" stroke="none" d="
M 470 259
Q 471.85 257.95 471.85 255.85 471.85 253.75 470 252.7
L 406.3 215.9
Q 404.5 214.85 402.65 215.9
L 338.95 252.7
Q 337.1 253.75 337.1 255.85 337.1 257.95 338.95 259
L 402.65 295.75
Q 404.5 296.8 406.3 295.75
L 470 259 Z"/>
</g>

<g id="Layer0_0_MEMBER_0_MEMBER_6_FILL">
<path fill="#DDE6C0" stroke="none" d="
M 372.9 278.6
L 393.5 266.7
Q 393.05 266.35 392.75 266.25 392.35 266.1 392 265.85
L 385.4 261.15 364.05 273.5 372.9 278.6 Z"/>
</g>

<g id="Layer0_0_MEMBER_1_MEMBER_0_FILL">
<path fill="#E6CAA4" stroke="none" d="
M 429.15 254.45
L 429.15 229.65 394.35 249.75 394.35 274.55 429.15 254.45 Z"/>
</g>

<g id="Layer0_0_MEMBER_1_MEMBER_1_FILL">
<path fill="#FFECC9" stroke="none" d="
M 378.75 264.95
L 387.5 270.05 386.85 270.5 394.35 274.85 394.35 250 377 229.35 359.6 229.95 359.6 254.75 378.1 265.45 378.75 264.95 Z"/>
</g>

<g id="Layer0_0_MEMBER_1_MEMBER_2_FILL">
<path fill="#46C3BC" stroke="none" d="
M 430.45 231.05
Q 430.85 230.5 430.1 229.55
L 412.15 208.2
Q 411.7 207.75 411.4 207.8
L 393.4 208.35
Q 393.25 208.35 392.9 208.6
L 358.3 228.9 377.55 229.35 395.7 251.4 430.15 231.25
Q 430.35 231.25 430.45 231.05 Z"/>
</g>

<g id="Layer0_0_MEMBER_1_MEMBER_3_FILL">
<path fill="#009D94" stroke="none" d="
M 430.15 231.25
Q 430.35 231.25 430.45 231.05 430.85 230.5 430.1 229.55
L 412.2 208.25 376.55 229.35 377.55 229.35 395.7 251.4 430.15 231.25 Z"/>
</g>

<g id="Layer0_0_MEMBER_1_MEMBER_4_MEMBER_0_FILL">
<path fill="#00756F" stroke="none" d="
M 376.5 246.6
L 375.85 247.05 375.85 255.3 376.5 254.85 376.5 246.6 Z"/>
</g>

<g id="Layer0_0_MEMBER_1_MEMBER_4_MEMBER_1_FILL">
<path fill="#46C3BC" stroke="none" d="
M 375.85 247.05
L 376.5 246.6 362.5 238.5 361.85 238.95 375.85 247.05 Z"/>
</g>

<g id="Layer0_0_MEMBER_1_MEMBER_4_MEMBER_2_FILL">
<path fill="#009D94" stroke="none" d="
M 361.85 238.95
L 361.85 247.2 375.85 255.3 375.85 247.05 361.85 238.95 Z"/>
</g>

<g id="Layer0_0_MEMBER_1_MEMBER_4_MEMBER_3_FILL">
<path fill="#85CDD2" stroke="none" d="
M 362.55 240.15
L 362.55 246.8 375.15 254.1 375.15 247.45 362.55 240.15 Z"/>
</g>

<g id="Layer0_0_MEMBER_1_MEMBER_4_MEMBER_4_FILL">
<path fill="#009D94" stroke="none" d="
M 361.85 242.65
L 361.85 243.5 375.85 251.6 375.85 250.75 361.85 242.65 Z"/>
</g>

<g id="Layer0_0_MEMBER_1_MEMBER_5_FILL">
<path fill="#00756F" stroke="none" d="
M 387.5 270.05
L 387.5 251.95 378.75 246.9 378.75 264.95 387.5 270.05 Z"/>
</g>

<g id="Layer0_0_MEMBER_1_MEMBER_6_FILL">
<path fill="#E6CAA4" stroke="none" d="
M 378.75 246.9
L 378.1 247.35 378.1 265.45 378.75 265 378.75 246.9 Z"/>
</g>

<g id="Layer0_0_MEMBER_1_MEMBER_7_FILL">
<path fill="#FFECC9" stroke="none" d="
M 378.75 246.9
L 378.1 247.35 386.85 252.45 386.85 270.5 387.5 270.05 388.5 250.95 378.75 246.9 Z"/>
</g>

<g id="Layer0_0_MEMBER_1_MEMBER_8_MEMBER_0_FILL">
<path fill="#00756F" stroke="none" d="
M 377.35 228.55
Q 376.95 228.1 376.6 228.15
L 358.65 228.7
Q 357.9 228.8 358.3 229.8 358.55 230.45 359 230.75
L 359.4 230.85 377 230.25 394.55 251.15
Q 394.85 251.5 395.2 251.6 395.5 251.65 395.7 251.4 396.05 250.8 395.35 249.9
L 377.35 228.55 Z"/>
</g>

<g id="Layer0_0_MEMBER_1_MEMBER_9_MEMBER_0_FILL">
<path fill="#FFECC9" stroke="none" d="
M 406.4 223.9
L 409.9 228.15 409.9 220.1 406.4 218.1 406.4 223.9 Z"/>
</g>

<g id="Layer0_0_MEMBER_1_MEMBER_9_MEMBER_1_FILL">
<path fill="#E6CAA4" stroke="none" d="
M 406.4 219.3
L 406.4 220.25 408.35 221.35 408.35 220.4 406.4 219.3 Z"/>
</g>

<g id="Layer0_0_MEMBER_1_MEMBER_9_MEMBER_2_FILL">
<path fill="#E6CAA4" stroke="none" d="
M 409.9 224.1
L 409.9 223.1 408.2 222.15 408.2 223.1 409.9 224.1 Z"/>
</g>

<g id="Layer0_0_MEMBER_1_MEMBER_9_MEMBER_3_FILL">
<path fill="#E6CAA4" stroke="none" d="
M 407.3 223.55
L 407.3 222.6 406.4 222.1 406.4 223.05 407.3 223.55 Z"/>
</g>

<g id="Layer0_0_MEMBER_1_MEMBER_9_MEMBER_4_FILL">
<path fill="#E6CAA4" stroke="none" d="
M 413.35 226.2
L 413.35 218.1 409.9 220.1 409.9 228.2 413.35 226.2 Z"/>
</g>

<g id="Layer0_0_MEMBER_1_MEMBER_9_MEMBER_5_FILL">
<path fill="#C6AE8E" stroke="none" d="
M 409.9 222.4
L 409.9 223.35 411.3 222.55 411.3 221.6 409.9 222.4 Z"/>
</g>

<g id="Layer0_0_MEMBER_1_MEMBER_9_MEMBER_6_FILL">
<path fill="#C6AE8E" stroke="none" d="
M 413.35 223.35
L 413.35 222.4 411 223.8 411 224.75 413.35 223.35 Z"/>
</g>

<g id="Layer0_0_MEMBER_1_MEMBER_9_MEMBER_7_FILL">
<path fill="#C6AE8E" stroke="none" d="
M 413.35 225.35
L 413.35 224.4 412.45 224.95 412.45 225.9 413.35 225.35 Z"/>
</g>

<g id="Layer0_0_MEMBER_1_MEMBER_9_MEMBER_8_FILL">
<path fill="#FFF8EC" stroke="none" d="
M 409.9 220.1
L 413.35 218.1 409.9 216.05 406.4 218.1 409.9 220.1 Z"/>
</g>

<g id="Layer0_0_MEMBER_1_MEMBER_9_MEMBER_9_FILL">
<path fill="#E6CAA4" stroke="none" d="
M 409.9 219.35
L 412.1 218.1 409.9 216.8 407.7 218.1 409.9 219.35 Z"/>
</g>

<g id="Layer0_0_MEMBER_1_MEMBER_9_MEMBER_10_FILL">
<path fill="#FFECC9" stroke="none" d="
M 409.9 216.8
L 409.9 219.35 412.1 218.1 409.9 216.8 Z"/>
</g>

<g id="Layer0_0_MEMBER_1_MEMBER_10_MEMBER_0_FILL">
<path fill="#FFECC9" stroke="none" d="
M 416 277.9
L 416 254.6 402.45 246.8 402.45 270.05 416 277.9 Z"/>
</g>

<g id="Layer0_0_MEMBER_1_MEMBER_10_MEMBER_1_FILL">
<path fill="#E6CAA4" stroke="none" d="
M 437.55 242.35
L 426.8 242 416 254.8 416 278.05 437.55 265.6 437.55 242.35 Z"/>
</g>

<g id="Layer0_0_MEMBER_1_MEMBER_10_MEMBER_2_FILL">
<path fill="#009D94" stroke="none" d="
M 426.45 242
L 432.85 242.2 438.35 241.7 424.95 233.75
Q 424.75 233.6 424.6 233.6
L 407.95 229.85
Q 407.75 229.8 407.45 230.1
L 401.85 246.75
Q 401.4 247.3 401.65 247.65 401.7 247.75 401.85 247.75
L 415.2 255.65 426.45 242 Z"/>
</g>

<g id="Layer0_0_MEMBER_1_MEMBER_10_MEMBER_3_FILL">
<path fill="#46C3BC" stroke="none" d="
M 426.45 242
L 427.05 242 407.45 230.15 401.85 246.75
Q 401.4 247.3 401.65 247.65 401.7 247.75 401.85 247.75
L 415.2 255.65 426.45 242 Z"/>
</g>

<g id="Layer0_0_MEMBER_1_MEMBER_10_MEMBER_4_MEMBER_0_FILL">
<path fill="#00756F" stroke="none" d="
M 437.7 242.9
L 437.95 242.85
Q 438.3 242.5 438.4 242.25 438.6 241.6 438.15 241.6
L 427 241.2
Q 426.8 241.2 426.55 241.5
L 415.4 254.7
Q 414.9 255.3 415.2 255.65 415.3 255.8 415.5 255.75 415.7 255.7 415.9 255.5
L 426.8 242.55 437.7 242.9 Z"/>
</g>

<g id="Layer0_0_MEMBER_1_MEMBER_11_MEMBER_0_FILL">
<path fill="#009D94" stroke="none" d="
M 433.1 253.3
L 424.8 258.1 424.8 272.95 433.1 268.15 433.1 253.3 Z"/>
</g>

<g id="Layer0_0_MEMBER_1_MEMBER_11_MEMBER_1_MEMBER_0_FILL">
<path fill="#00756F" stroke="none" d="
M 424.8 272.05
L 424.8 273 433.1 268.2 433.1 267.25 424.8 272.05 Z"/>
</g>

<g id="Layer0_0_MEMBER_1_MEMBER_11_MEMBER_1_MEMBER_1_FILL">
<path fill="#00756F" stroke="none" d="
M 424.8 268.55
L 424.8 269.5 433.1 264.7 433.1 263.75 424.8 268.55 Z"/>
</g>

<g id="Layer0_0_MEMBER_1_MEMBER_11_MEMBER_1_MEMBER_2_FILL">
<path fill="#00756F" stroke="none" d="
M 424.8 265.05
L 424.8 266.05 433.1 261.25 433.1 260.25 424.8 265.05 Z"/>
</g>

<g id="Layer0_0_MEMBER_1_MEMBER_11_MEMBER_1_MEMBER_3_FILL">
<path fill="#00756F" stroke="none" d="
M 424.8 261.6
L 424.8 262.55 433.1 257.75 433.1 256.8 424.8 261.6 Z"/>
</g>

<g id="Layer0_0_MEMBER_1_MEMBER_11_MEMBER_1_MEMBER_4_FILL">
<path fill="#00756F" stroke="none" d="
M 433.1 253.3
L 424.8 258.1 424.8 259.05 433.1 254.25 433.1 253.3 Z"/>
</g>

<g id="Layer0_0_MEMBER_1_MEMBER_12_MEMBER_0_FILL">
<path fill="#00756F" stroke="none" d="
M 377 234.1
L 375.95 233.5
Q 374.9 232.9 374.05 233.15 373.25 233.25 372.75 233.85 371.9 234.6 371.9 236.35 371.9 238.25 372.9 240.15 373.9 242.05 375.3 242.9
L 376.35 243.5
Q 377.4 244.05 378.1 243.85
L 378.15 243.85
Q 378.5 243.85 379.15 243.45 380.45 242.8 380.45 240.65 380.45 238.75 379.45 236.85 378.45 234.95 377 234.1 Z"/>
</g>

<g id="Layer0_0_MEMBER_1_MEMBER_12_MEMBER_1_FILL">
<path fill="#009D94" stroke="none" d="
M 376.35 234.4
L 375.3 233.8
Q 373.9 233 372.9 233.75 371.9 234.5 371.9 236.35 371.9 238.25 372.9 240.15 373.9 242.05 375.3 242.9
L 376.35 243.5
Q 377.8 244.35 378.8 243.55 379.8 242.8 379.8 240.9 379.8 239.05 378.8 237.15 377.8 235.25 376.35 234.4 Z"/>
</g>

<g id="Layer0_0_MEMBER_1_MEMBER_12_MEMBER_2_FILL">
<path fill="#85CDD2" stroke="none" d="
M 372.65 236.8
Q 372.65 238.35 373.45 239.9 374.25 241.4 375.4 242.05
L 376.25 242.55
Q 377.4 243.2 378.2 242.6 379 242 379 240.5 379 238.95 378.2 237.4 377.4 235.85 376.25 235.2
L 375.4 234.75
Q 374.3 234.1 373.45 234.7 372.65 235.3 372.65 236.8 Z"/>
</g>

<g id="Layer0_0_MEMBER_1_MEMBER_12_MEMBER_3_FILL">
<path fill="#009D94" stroke="none" d="
M 376.25 243.45
L 376.25 234.35 375.45 233.85 375.45 242.95 376.25 243.45 Z"/>
</g>

<g id="Layer0_0_MEMBER_1_MEMBER_12_MEMBER_4_FILL">
<path fill="#009D94" stroke="none" d="
M 371.9 236.85
L 379.8 241.4 379.8 240.45 371.9 235.9 371.9 236.85 Z"/>
</g>
</defs>

<g transform="matrix( 7, 0, 0, 7, -2319.3,-1281.25) ">
<use xlink:href="#Layer0_0_MEMBER_0_MEMBER_0_FILL"/>
</g>

<g transform="matrix( 7, 0, 0, 7, -2319.3,-1281.25) ">
<use xlink:href="#Layer0_0_MEMBER_0_MEMBER_1_FILL"/>
</g>

<g transform="matrix( 7, 0, 0, 7, -2319.3,-1281.25) ">
<use xlink:href="#Layer0_0_MEMBER_0_MEMBER_2_FILL"/>
</g>

<g transform="matrix( 7, 0, 0, 7, -2319.3,-1281.25) ">
<use xlink:href="#Layer0_0_MEMBER_0_MEMBER_3_FILL"/>
</g>

<g transform="matrix( 7, 0, 0, 7, 491.9,747) ">
<use xlink:href="#Layer0_0_MEMBER_0_MEMBER_4_FILL"/>
</g>

<g transform="matrix( 7, 0, 0, 7, -2319.3,-1281.25) ">
<use xlink:href="#Layer0_0_MEMBER_0_MEMBER_5_FILL"/>
</g>

<g transform="matrix( 7, 0, 0, 7, -2319.3,-1281.25) ">
<use xlink:href="#Layer0_0_MEMBER_0_MEMBER_6_FILL"/>
</g>

<g transform="matrix( 7, 0, 0, 7, -2319.3,-1281.25) ">
<use xlink:href="#Layer0_0_MEMBER_1_MEMBER_0_FILL"/>
</g>

<g transform="matrix( 7, 0, 0, 7, -2319.3,-1281.25) ">
<use xlink:href="#Layer0_0_MEMBER_1_MEMBER_1_FILL"/>
</g>

<g transform="matrix( 7, 0, 0, 7, -2319.3,-1281.25) ">
<use xlink:href="#Layer0_0_MEMBER_1_MEMBER_2_FILL"/>
</g>

<g transform="matrix( 7, 0, 0, 7, -2319.3,-1281.25) ">
<use xlink:href="#Layer0_0_MEMBER_1_MEMBER_3_FILL"/>
</g>

<g transform="matrix( 7, 0, 0, 7, -2319.3,-1281.25) ">
<use xlink:href="#Layer0_0_MEMBER_1_MEMBER_4_MEMBER_0_FILL"/>
</g>

<g transform="matrix( 7, 0, 0, 7, -2319.3,-1281.25) ">
<use xlink:href="#Layer0_0_MEMBER_1_MEMBER_4_MEMBER_1_FILL"/>
</g>

<g transform="matrix( 7, 0, 0, 7, -2319.3,-1281.25) ">
<use xlink:href="#Layer0_0_MEMBER_1_MEMBER_4_MEMBER_2_FILL"/>
</g>

<g transform="matrix( 7, 0, 0, 7, -2319.3,-1281.25) ">
<use xlink:href="#Layer0_0_MEMBER_1_MEMBER_4_MEMBER_3_FILL"/>
</g>

<g transform="matrix( 7, 0, 0, 7, -2319.3,-1281.25) ">
<use xlink:href="#Layer0_0_MEMBER_1_MEMBER_4_MEMBER_4_FILL"/>
</g>

<g transform="matrix( 7, 0, 0, 7, -2319.3,-1281.25) ">
<use xlink:href="#Layer0_0_MEMBER_1_MEMBER_5_FILL"/>
</g>

<g transform="matrix( 7, 0, 0, 7, -2319.3,-1281.25) ">
<use xlink:href="#Layer0_0_MEMBER_1_MEMBER_6_FILL"/>
</g>

<g transform="matrix( 7, 0, 0, 7, -2319.3,-1281.25) ">
<use xlink:href="#Layer0_0_MEMBER_1_MEMBER_7_FILL"/>
</g>

<g transform="matrix( 7, 0, 0, 7, -2319.3,-1281.25) ">
<use xlink:href="#Layer0_0_MEMBER_1_MEMBER_8_MEMBER_0_FILL"/>
</g>

<g transform="matrix( 7, 0, 0, 7, -2319.3,-1281.25) ">
<use xlink:href="#Layer0_0_MEMBER_1_MEMBER_9_MEMBER_0_FILL"/>
</g>

<g transform="matrix( 7, 0, 0, 7, -2319.3,-1281.25) ">
<use xlink:href="#Layer0_0_MEMBER_1_MEMBER_9_MEMBER_1_FILL"/>
</g>

<g transform="matrix( 7, 0, 0, 7, -2319.3,-1281.25) ">
<use xlink:href="#Layer0_0_MEMBER_1_MEMBER_9_MEMBER_2_FILL"/>
</g>

<g transform="matrix( 7, 0, 0, 7, -2319.3,-1281.25) ">
<use xlink:href="#Layer0_0_MEMBER_1_MEMBER_9_MEMBER_3_FILL"/>
</g>

<g transform="matrix( 7, 0, 0, 7, -2319.3,-1281.25) ">
<use xlink:href="#Layer0_0_MEMBER_1_MEMBER_9_MEMBER_4_FILL"/>
</g>

<g transform="matrix( 7, 0, 0, 7, -2319.3,-1281.25) ">
<use xlink:href="#Layer0_0_MEMBER_1_MEMBER_9_MEMBER_5_FILL"/>
</g>

<g transform="matrix( 7, 0, 0, 7, -2319.3,-1281.25) ">
<use xlink:href="#Layer0_0_MEMBER_1_MEMBER_9_MEMBER_6_FILL"/>
</g>

<g transform="matrix( 7, 0, 0, 7, -2319.3,-1281.25) ">
<use xlink:href="#Layer0_0_MEMBER_1_MEMBER_9_MEMBER_7_FILL"/>
</g>

<g transform="matrix( 7, 0, 0, 7, -2319.3,-1281.25) ">
<use xlink:href="#Layer0_0_MEMBER_1_MEMBER_9_MEMBER_8_FILL"/>
</g>

<g transform="matrix( 7, 0, 0, 7, -2319.3,-1281.25) ">
<use xlink:href="#Layer0_0_MEMBER_1_MEMBER_9_MEMBER_9_FILL"/>
</g>

<g transform="matrix( 7, 0, 0, 7, -2319.3,-1281.25) ">
<use xlink:href="#Layer0_0_MEMBER_1_MEMBER_9_MEMBER_10_FILL"/>
</g>

<g transform="matrix( 7, 0, 0, 7, -2319.3,-1281.25) ">
<use xlink:href="#Layer0_0_MEMBER_1_MEMBER_10_MEMBER_0_FILL"/>
</g>

<g transform="matrix( 7, 0, 0, 7, -2319.3,-1281.25) ">
<use xlink:href="#Layer0_0_MEMBER_1_MEMBER_10_MEMBER_1_FILL"/>
</g>

<g transform="matrix( 7, 0, 0, 7, -2319.3,-1281.25) ">
<use xlink:href="#Layer0_0_MEMBER_1_MEMBER_10_MEMBER_2_FILL"/>
</g>

<g transform="matrix( 7, 0, 0, 7, -2319.3,-1281.25) ">
<use xlink:href="#Layer0_0_MEMBER_1_MEMBER_10_MEMBER_3_FILL"/>
</g>

<g transform="matrix( 7, 0, 0, 7, -2319.3,-1281.25) ">
<use xlink:href="#Layer0_0_MEMBER_1_MEMBER_10_MEMBER_4_MEMBER_0_FILL"/>
</g>

<g transform="matrix( 7, 0, 0, 7, -2319.3,-1281.25) ">
<use xlink:href="#Layer0_0_MEMBER_1_MEMBER_11_MEMBER_0_FILL"/>
</g>

<g transform="matrix( 7, 0, 0, 7, -2319.3,-1281.25) ">
<use xlink:href="#Layer0_0_MEMBER_1_MEMBER_11_MEMBER_1_MEMBER_0_FILL"/>
</g>

<g transform="matrix( 7, 0, 0, 7, -2319.3,-1281.25) ">
<use xlink:href="#Layer0_0_MEMBER_1_MEMBER_11_MEMBER_1_MEMBER_1_FILL"/>
</g>

<g transform="matrix( 7, 0, 0, 7, -2319.3,-1281.25) ">
<use xlink:href="#Layer0_0_MEMBER_1_MEMBER_11_MEMBER_1_MEMBER_2_FILL"/>
</g>

<g transform="matrix( 7, 0, 0, 7, -2319.3,-1281.25) ">
<use xlink:href="#Layer0_0_MEMBER_1_MEMBER_11_MEMBER_1_MEMBER_3_FILL"/>
</g>

<g transform="matrix( 7, 0, 0, 7, -2319.3,-1281.25) ">
<use xlink:href="#Layer0_0_MEMBER_1_MEMBER_11_MEMBER_1_MEMBER_4_FILL"/>
</g>

<g transform="matrix( 7, 0, 0, 7, -2319.3,-1281.25) ">
<use xlink:href="#Layer0_0_MEMBER_1_MEMBER_12_MEMBER_0_FILL"/>
</g>

<g transform="matrix( 7, 0, 0, 7, -2319.3,-1281.25) ">
<use xlink:href="#Layer0_0_MEMBER_1_MEMBER_12_MEMBER_1_FILL"/>
</g>

<g transform="matrix( 7, 0, 0, 7, -2319.3,-1281.25) ">
<use xlink:href="#Layer0_0_MEMBER_1_MEMBER_12_MEMBER_2_FILL"/>
</g>

<g transform="matrix( 7, 0, 0, 7, -2319.3,-1281.25) ">
<use xlink:href="#Layer0_0_MEMBER_1_MEMBER_12_MEMBER_3_FILL"/>
</g>

<g transform="matrix( 7, 0, 0, 7, -2319.3,-1281.25) ">
<use xlink:href="#Layer0_0_MEMBER_1_MEMBER_12_MEMBER_4_FILL"/>
</g>
</svg>
