<?xml version="1.0" encoding="utf-8"?>
<!-- Generator: Adobe Illustrator 24.2.0, SVG Export Plug-In . SVG Version: 6.00 Build 0)  -->
<svg version="1.1" id="图层_1" xmlns="http://www.w3.org/2000/svg" xmlns:xlink="http://www.w3.org/1999/xlink" x="0px" y="0px"
	 viewBox="0 0 700 700" style="enable-background:new 0 0 700 700;" xml:space="preserve">
<style type="text/css">
	.st0{clip-path:url(#SVGID_2_);}
	.st1{fill:#E5E6EB;}
	.st2{fill:#FFBD00;}
	.st3{fill:#84A9FF;}
	.st4{fill:#DCA000;}
	.st5{fill:#FFFFFF;}
	.st6{fill:#050F64;}
	.st7{fill:#155BCD;}
	.st8{fill:#F5BDC8;}
	.st9{fill:#EA8096;}
	.st10{fill:#FF654F;}
	.st11{opacity:0;}
	.st12{opacity:0.5;}
	.st13{fill:#DA5544;}
</style>
<g>
	<g>
		<defs>
			<rect id="SVGID_1_" x="21.1" y="524" width="654.2" height="139.5"/>
		</defs>
		<clipPath id="SVGID_2_">
			<use xlink:href="#SVGID_1_"  style="overflow:visible;"/>
		</clipPath>
		<g class="st0">
			<path class="st1" d="M46.9,629.3c8.2,0.2,16,3.6,23.7,6.4c7.7,2.8,16.1,5.2,24.1,3.4c6.8-1.5,13-5.8,20-5.5
				c8.8,0.4,15.8,8,24.4,9.9c6.8,1.5,13.8-0.8,20.7-1.1c10-0.4,20,3.6,26.9,10.8c6.9,7.1,10.7,17.3,10,27.2
				c-11.1-5.5-24.1-5.5-36.5-5.5c-36.5,0.2-73,0.5-109.5,0.7c-6,0-12.3,0-17.3-3.4c-4.5-3-7-8.2-7.9-13.5c-1-5.5-1.8-14.7,1.1-19.8
				C30.4,632.2,39.6,629,46.9,629.3z"/>
		</g>
		<g class="st0">
			<g>
				<path class="st2" d="M184.4,649.9c5.5,3.8,11.4,8.3,12.8,14.8c-4.5,1.5-9.6,0-13.2-3.1c-8.9-7.7-15.1-22.3-15.1-22.3
					S179.6,646.5,184.4,649.9z"/>
			</g>
			<g>
				<path class="st2" d="M207.3,658.7c3.6-3.5,5.7-8.3,6.7-13.2c1-4.9,1-10,1-15c-2.2,5.4-5.5,10.4-9.6,14.6c-3.2,3.2-7,6-9.7,9.7
					c-1.3,1.9-6.6,10.9-1.4,10.4C198.8,664.8,204.1,661.8,207.3,658.7z"/>
			</g>
			<g>
				<path class="st2" d="M181.8,637.9c-2.6-2.8-4.2-6.2-5.4-8.7c-1.9-4-3.2-12-3.2-12s8.1,6.2,11.6,9.8c3.5,3.7,6.7,6.6,8.1,11.5
					c0.6,2.2,0.5,5.8,1.1,8.1c0.5,2.1,0,1.7-1.4,0.6C188.9,644.3,184.9,641.2,181.8,637.9z"/>
			</g>
			<g>
				<path class="st2" d="M197.4,631.4c1.3-2.2,3-4.2,4.9-6.1c2-1.9,4.1-3.7,6.4-5.3c1.2-0.8,2.4-1.6,3.6-2.3
					c0.5-0.3,3.4-1.7,3.4-1.7s-5,12.8-8.6,18.5c-2.5,4.1-6.5,8.5-10.3,11.5c-1.1,0.9-3.7,3.3-4,0.4c-0.2-2.3,1.1-5.6,1.6-7.9
					C195,636.1,196,633.6,197.4,631.4z"/>
			</g>
			<g>
				<path class="st2" d="M192.5,615.6c0,8.2,1.9,16.6,2.2,24.9c0.1,4.2,0.2,8.4,0.1,12.7c-0.1,3.5,0.5,8.3-0.7,11.6
					c-2.6-1.5-1.8-6-1.7-8.4c0-4.5,0-9,0-13.6C192.4,633.7,192.4,624.7,192.5,615.6z"/>
			</g>
		</g>
		<g class="st0">
			<g>
				<g>
					<path class="st3" d="M103.6,643.5c-0.2,7.9-5.5,18-12.7,21.9c-3.1,1.7-6.7,2-10.1,2.5c-0.8,0.1-1.5,0.2-2.3,0.3
						c-0.4,0.1-0.8,0.1-1.2,0.2c-4.6,0.8-9,1.9-13.4,3.9c-2.2,1-4.4,2.3-6.8,2.7c-2.4,0.4-5.2,0-6.7-1.9c-2.2-2.6-1.2-6.6,0.6-9.5
						c1.8-2.9,4.2-5.5,4.9-8.8c1.1-5.4-2.7-10.4-6.1-14.7c-3.4-4.3-6.8-9.7-5-14.9c0.9-2.4,2.7-4.1,4.8-5.5c0.4-0.3,0.9-0.6,1.4-0.9
						c3.3-2,7.1-3.7,9.4-6.7c3.8-4.7,3.2-11.6,0.7-17.1c-2.4-5.5-6.4-10.1-9.3-15.4c-0.4-0.8-0.9-1.7-1.2-2.5
						c-0.2-0.4-0.4-0.8-0.5-1.3c-1.4-3.6-2.2-7.3-1.9-11.1c0.4-5.1,2.9-10.2,7.3-12.8c0.1,0,0.1-0.1,0.2-0.1
						c0.3-0.2,0.6-0.3,0.8-0.5c4.4-2.1,10.1-1.5,13.5,2c6.4,6.9,1,19.3,6.5,27c1.5,2.1,3.9,3.8,5.8,5.7c0.3,0.3,0.6,0.6,0.9,0.9
						c1.3,1.4,2.3,2.9,2.5,4.9c0.4,4-3.1,7.3-4.1,11.2c-1.3,5,1.5,10.2,5.1,13.9c3.6,3.7,8.1,6.5,11.4,10.4c2.4,2.8,4.1,6.3,4.9,9.9
						c0.1,0.5,0.2,1,0.3,1.5C103.5,640.3,103.6,641.9,103.6,643.5z"/>
				</g>
			</g>
			<g>
				<g>
					<g>
						<path class="st1" d="M78.5,668.3c-0.4,0.1-0.8,0.1-1.2,0.2c-2.9-6.1-4.5-12.8-5.3-19.6c-0.1-0.4-0.1-0.8-0.2-1.2
							c-0.6-5.2-0.9-10.5-1.1-15.8c-0.1-1.9-0.2-3.9-0.3-5.8c-0.1-1.5-0.2-3-0.3-4.4c0-0.4-0.1-0.8-0.1-1.2
							c-0.7-9.3-2-18.5-3.6-27.6c-0.1-0.4-0.1-0.8-0.2-1.2c-0.9-4.9-2-9.7-3.2-14.6c-0.1-0.4-0.2-0.8-0.3-1.2c-2-8-4.4-16-7.2-23.8
							c0.1,0,0.1-0.1,0.2-0.1c0.3-0.2,0.6-0.3,0.8-0.5c2.8,8,5.3,16.1,7.3,24.2c0.1,0.4,0.2,0.8,0.3,1.2c1.2,4.9,2.3,9.8,3.2,14.7
							c0.1,0.4,0.2,0.8,0.2,1.2c1.7,9.1,2.9,18.2,3.6,27.5c0,0.4,0.1,0.8,0.1,1.2c0.1,1.5,0.2,3,0.3,4.5c0.1,1.9,0.2,3.9,0.3,5.8
							c0.3,5.3,0.5,10.7,1.2,16.1h0c0,0.4,0.1,0.8,0.2,1.2C74,655.8,75.6,662.3,78.5,668.3z"/>
					</g>
				</g>
				<g>
					<g>
						<path class="st1" d="M64.1,576.8c-0.4,0.1-0.8,0.1-1.2,0.2c-2.2,0.3-4.5,0.5-6.9,0.5c-1.8,0-3.6-0.1-5.4-0.3
							c-0.2-0.4-0.4-0.8-0.5-1.3c4.4,0.5,8.8,0.4,12.5-0.1c0.4-0.1,0.8-0.1,1.2-0.2C63.9,576.1,64,576.4,64.1,576.8z"/>
					</g>
				</g>
				<g>
					<g>
						<path class="st1" d="M83.1,587c-4.3,3.5-10.4,5.6-15.6,5.8c-0.2,0-0.5,0-0.7,0c-0.2,0-0.4,0-0.5,0c-0.1-0.4-0.1-0.8-0.2-1.2
							c0.4,0,0.8,0,1.2,0c4.9-0.1,10.8-2.2,14.9-5.5C82.5,586.4,82.8,586.7,83.1,587z"/>
					</g>
				</g>
				<g>
					<g>
						<path class="st1" d="M71.2,621.4c-0.4,0.1-0.8,0.1-1.2,0.1c-1.9,0.2-3.7,0.3-5.6,0.3c-5,0-10-0.7-14.8-2
							c0.4-0.3,0.9-0.6,1.4-0.9c6.2,1.6,12.6,2.1,18.9,1.4c0.4,0,0.8-0.1,1.2-0.1C71.2,620.6,71.2,621,71.2,621.4z"/>
					</g>
				</g>
				<g>
					<g>
						<path class="st1" d="M103.2,638.6c-2,2.3-4.3,4.3-6.8,5.9c-5,3.1-11.8,4.9-18.4,4.9c-1.6,0-3.3-0.1-4.8-0.3
							c-0.4-0.1-0.8-0.1-1.2-0.2c-0.1-0.4-0.1-0.8-0.2-1.2c0.4,0.1,0.8,0.2,1.2,0.2h0c7.6,1.2,16.7-0.5,22.7-4.3
							c2.7-1.7,5.1-3.9,7.2-6.3C103,637.6,103.1,638.1,103.2,638.6z"/>
					</g>
				</g>
			</g>
		</g>
		<g class="st0">
			<path class="st1" d="M473.5,649.3c4.9-1.9,7.5-7.1,10-11.8c2.5-4.7,6-9.6,11.2-10.1c4.8-0.5,9.2,3.3,11.7,7.4
				c2.5,4.2,3.8,9,6.4,13.1c2.6,4.1,7.2,7.6,12,6.8c4.9-0.9,8.1-5.8,12.9-6.9c5.3-1.2,10.7,2.8,12.9,7.7c2.2,5,2,10.6,1.7,16
				c-0.2,4.4-78.6-0.8-86.2-1.5c-7.6-0.7-18.4-1.1-18.4-11C447.8,643.7,465.2,652.5,473.5,649.3z"/>
		</g>
		<g class="st0">
			<path class="st1" d="M564.4,656.9c4.9-1.3,7.5-4.9,10-8.1c2.5-3.2,6-6.6,11.2-6.9c4.8-0.3,9.2,2.2,11.7,5.1
				c2.5,2.9,3.8,6.1,6.4,9c2.6,2.8,7.2,5.2,12,4.6c4.9-0.6,8.1-4,12.9-4.7c5.3-0.8,10.7,1.9,12.8,5.3c2.2,3.4,2,7.3,1.7,11
				c-0.2,3-78.6-0.5-86.2-1.1c-7.6-0.5-18.4-0.8-18.4-7.5C538.7,653.1,556.1,659.1,564.4,656.9z"/>
		</g>
		<g class="st0">
			<g>
				<g>
					<g>
						<path class="st2" d="M518.7,571.8c2.8,2.2,4.9,5.1,6.9,8.3c0.1,0.2,0.2,0.4,0.4,0.6c2.1,3.4,4.2,6.9,7.3,9.3
							c3.7,2.8,8.7,4.2,12.1,7c0.2,0.2,0.4,0.4,0.7,0.6c0.8,0.8,1.6,1.7,2.1,2.8c1.8,3.7,0.9,8.1,0.7,12.2c0,0.1,0,0.2,0,0.2
							c0,0.1,0,0.3,0,0.4c-0.3,7.6,2.2,15.3,6.9,21.3c3.7,4.6,8.2,6.8,13,9.9c2.6,1.7,3.7,3.5,3.8,5.4c0,0.2,0,0.4,0,0.6
							c-0.3,3.5-3.7,6.9-7.3,9.2c-6.6,4.2-15,5.8-22.5,3.7c-5.8-1.6-11.4-5.7-12.9-11.5c-0.1-0.2-0.1-0.4-0.1-0.6
							c0-0.2-0.1-0.4-0.1-0.6c-0.4-2.6,0-5.6-1.5-7.7c-1.9-2.7-5.8-2.8-8.5-4.7c-3.2-2.3-4.1-6.7-3.5-10.6c0-0.2,0.1-0.4,0.1-0.6
							c0,0,0-0.1,0-0.1c0.9-4.1,3-7.7,4.6-11.6c0.9-2.1,1.5-4.5,1.6-6.8c0-0.2,0-0.4,0-0.6c0-1.6-0.3-3.2-1-4.7
							c-1.7-3.5-5.4-5.7-9.1-7c-3.4-1.2-6.9-1.9-10.2-3.3c-0.3-0.1-0.6-0.3-0.9-0.4c0,0-0.1,0-0.1,0c-5.7-2.8-10-8.5-11.1-14.8
							c-0.3-1.5-0.3-3.1-0.1-4.6c0-0.2,0.1-0.5,0.1-0.7c0.8-3.6,7.4-4.4,10.3-4.8c4.7-0.6,9.8-0.1,14.2,1.9
							C516.2,570,517.5,570.9,518.7,571.8z"/>
					</g>
				</g>
				<g>
					<path class="st4" d="M521.4,589.9c-5-4.4-11.2-7.2-17.2-9.9c-3.4-1.5-7-3.1-10.2-5c-1.3-0.7-2.6-1.6-3.8-2.7
						c-0.1,0.2-0.1,0.5-0.1,0.7c1.1,1,2.4,1.8,3.6,2.5c3.3,1.9,6.8,3.5,10.3,5c6.1,2.7,12.4,5.5,17.3,10c0.2,0.1,0.3,0.3,0.5,0.4
						c0,0,0.1,0.1,0.1,0.1c0.8,0.7,1.5,1.5,2.1,2.3c-1.8,0.8-3.8,0.6-5.3,0.4c-1.1-0.2-2.3-0.6-3.4-0.9c-0.9-0.3-1.8-0.6-2.7-0.8
						c-3.7-0.9-7.6-0.7-11.2,0.5c0.3,0.1,0.6,0.3,0.9,0.4l0,0c3.3-1,6.9-1.1,10.2-0.3c0.9,0.2,1.8,0.5,2.7,0.8
						c1.1,0.4,2.3,0.7,3.4,1c1.6,0.3,3.9,0.5,5.9-0.5c2.2,2.7,3.9,5.7,5.5,8.8c0.1,0.2,0.2,0.4,0.3,0.6c1,2.1,1.9,4.3,2.7,6.5
						c-3.2-1.3-6.8-2-10.2-1.9c0,0-0.1,0-0.1,0c0,0.2,0,0.4,0,0.6c0,0,0.1,0,0.1,0c3.6-0.1,7.2,0.6,10.5,2c0.8,2.1,1.5,4.2,2.2,6.3
						c0.1,0.2,0.2,0.5,0.2,0.7c0.1,0.2,0.1,0.4,0.2,0.6c0.1,0.3,0.2,0.7,0.4,1c1,2.9,2.1,5.9,3.3,8.7c-7.7,1.6-15.7,1.3-23.2-0.9
						c0,0.2-0.1,0.4-0.1,0.6c7.6,2.3,15.8,2.6,23.5,0.9c2.1,4.6,4.6,9,7.9,12.5c-5.4,4.2-11.5,7.6-17.9,10.2c0,0.2,0.1,0.4,0.1,0.6
						c6.5-2.6,12.6-6.1,18.2-10.4c1.6,1.6,3.4,3.1,5.4,4.3c5.7,3.5,12.1,4.6,19.2,4.7c0-0.2,0-0.4,0-0.6c-7-0.1-13.3-1.2-18.9-4.6
						c-1.9-1.2-3.6-2.6-5.2-4.2c-0.1-0.2-0.3-0.3-0.4-0.5c-3.2-3.5-5.7-7.7-7.8-12.2c-0.1-0.2-0.2-0.4-0.3-0.6
						c-1.3-2.8-2.3-5.8-3.4-8.8c-0.1-0.4-0.3-0.8-0.4-1.2c3.9-2.2,8.2-3.7,12.6-4.7c0-0.1,0-0.3,0-0.4c0-0.1,0-0.2,0-0.2
						c-4.5,0.9-8.8,2.5-12.8,4.7c-0.1-0.2-0.1-0.4-0.2-0.6c-0.6-1.9-1.3-3.8-2-5.7c-0.1-0.3-0.2-0.6-0.3-0.8
						c-0.9-2.4-1.8-4.9-2.9-7.2c4.5-3.2,10-5.1,15.5-5.4c-0.2-0.2-0.4-0.4-0.7-0.6c0,0,0,0,0,0c-5.4,0.4-10.7,2.3-15.1,5.4
						c-1.6-3.3-3.4-6.4-5.7-9.1l0,0l0,0l-0.1-0.1c0,0,0,0,0,0c-0.7-0.9-1.5-1.7-2.4-2.5c-0.1-0.1-0.1-0.1-0.2-0.2
						c0.6-3.5,2-6.8,4.1-9.7c-0.1-0.2-0.2-0.4-0.4-0.6C523.5,583,522,586.4,521.4,589.9z"/>
				</g>
			</g>
			<g>
				<path class="st1" d="M558.7,597.1c2.1-1.1,4.5,0.2,6.7,1c2.3,0.8,4.9,1,7-0.2c2.1-1.2,3.4-4,2.4-6.2c-0.9-1.9-3.2-2.8-5.3-2.8
					c-2.1,0-4.1,0.7-6.2,1c-2.1,0.4-4.3,0.4-6.1-0.7c-1.8-1.1-2.6-3.8-1.2-5.4c1-1.2,2.9-1.3,4.4-0.9c1.5,0.5,2.9,1.4,4.3,2.1
					c5.6,2.8,13.1,1.1,17.1-3.8c1.5-1.9,2.5-4.7,1-6.7c-1.8-2.4-5.4-1.4-7.6,0c-2.5,1.5-4.3,4-6.9,5.5c-3.4,1.9-11,2.2-12.4-2.4
					c-0.6-1.8,1.8-3.2,3.3-3.6c1.7-0.4,3.5-0.1,5.3-0.1c8.4,0.2,15.3-5.4,17.9-13.2c2.3-6.7-4.3-5.5-8.4-4c-2.8,1.1-5.3,2.9-6.9,5.4
					c-0.9,1.3-1.6,2.9-3,3.8c-1.3,0.9-3.5,0.9-4.2-0.6c-0.7-1.5,0.6-3.2,1.8-4.3c2.2-2.1,4.4-4.2,6.6-6.3c1.2-1.2,2.5-2.4,3.1-4
					c0.6-1.6,0.5-3.6-0.8-4.7c-1.5-1.2-3.8-0.7-5.2,0.6c-1.4,1.3-2.1,3.1-2.8,4.9c-1.2,3.2-2.4,6.5-3.7,9.7c-0.5,1.3-1.2,2.9-2.6,3
					c-1.5,0.2-2.6-1.3-3.2-2.6c-1.1-3-0.9-6.3-0.5-9.4c0.4-3.2,0.9-6.4,0.3-9.5s-2.6-6.2-5.7-7c-4.5-1.2-9,3.2-9.1,7.8
					c-0.1,4.6,3.2,8.7,7.1,11.1c1.7,1,3.8,2.2,3.8,4.2c0,2.1-2.6,3.2-4.6,2.8c-2-0.4-3.7-1.8-5.5-2.8c-1.8-1-4.2-1.6-5.8-0.4
					c-1.8,1.2-1.9,4.1-0.6,5.8s3.7,2.3,5.8,2.1c3.7-0.4,7.3-3.2,10.8-2.1c1.8,0.6,3.3,2.3,3.4,4.2c0.1,1.9-1.2,3.9-3.1,4.3
					c-3,0.7-5.6-2.2-8.6-2.9c-2.9-0.6-6,1.3-6.9,4.1c-0.8,2.8,0.8,6.1,3.5,7.2c2,0.8,4.3,0.4,6.4,0c2.1-0.5,4.3-1,6.4-0.5
					c2.1,0.4,4.1,2.3,4,4.4c-0.2,3-4.2,4.2-7,3.4c-2.9-0.9-5.2-3-8-4.1c-2.8-1-6.8-0.3-7.5,2.6c-0.6,2.8,2.3,5.2,5.1,5.6
					s5.7-0.5,8.5-0.3c2.9,0.1,6.1,1.9,6.1,4.8c0,2.5-2.5,4.4-5,4.6s-4.9-0.9-7.2-1.9c-2.3-1-4.8-2-7.3-1.7c-2.5,0.3-4.9,2.5-4.6,5
					c0.3,2.3,2.7,3.8,5.1,4.3c2.3,0.4,4.8,0.2,7,0.8c2.3,0.6,4.5,2.6,4.2,5c-0.4,2.5-3.2,3.7-5.7,4.1c-2.5,0.3-5.3,0.4-7.1,2.2
					c-1.4,1.4-1.8,3.7-0.9,5.4c0.9,1.8,2.9,2.9,4.8,2.6c3.1-0.4,5.6-3.8,8.7-3.1c1.8,0.4,2.9,2.1,3.4,3.8s0.4,3.6,0.6,5.4
					c0.4,4.1,2.6,8.1,6.3,9.9c3.7,1.8,8.9,0.3,10.3-3.4c1.1-2.9,0-6.2-1.7-8.9c-1.7-2.6-3.9-5-5.1-7.9c-1.2-2.9-1.1-6.7,1.3-8.6
					c1.7-1.4,4-1.5,6.2-1.5c2.2,0,4.4,0.2,6.4-0.8c1.9-1,3.3-3.5,2.1-5.4c-0.6-0.9-1.6-1.5-2.7-1.7c-4.1-0.9-9.7,1.5-12.6-2.7
					C556.9,601.3,556.7,598.2,558.7,597.1z"/>
			</g>
			<g>
				<g>
					<path class="st3" d="M628.8,567.6c-0.1,0.2-0.2,0.4-0.3,0.6c-0.2,0.3-0.4,0.7-0.5,1c-4.1,7.6-9,15-10,23.6
						c-0.1,0.5-0.1,0.9-0.1,1.4c0,0.2,0,0.4,0,0.6c-0.4,7.6,1.5,15.8-2.8,22c-4.6,6.7-14,7.4-21.4,10.9c-1,0.5-2,1-3,1.7
						c-0.2,0.1-0.4,0.3-0.7,0.4c-4.8,3.2-8.6,7.9-10.7,13.3c-1.4,3.6-1.9,7.3-1.9,11.1c0,2.5,0.8,5.1-1,7.2
						c-2.3,2.7-7.6,3.2-12.2,3.1c-0.2,0-0.4,0-0.6,0c-1.9-0.1-3.7-0.3-5-0.5c-6.4-1.1-12.6-5.2-14.2-11.5
						c-2.5-10.2,7.9-20.7,4.3-30.6c-1.3-3.4-4.1-6.2-5.8-9.4c-0.1-0.2-0.2-0.4-0.3-0.6c-0.4-0.8-0.6-1.6-0.8-2.5
						c-0.9-5.3,3.3-10.4,8.2-12.7c4.1-2,8.7-2.5,13.2-3.3c0.2,0,0.5-0.1,0.7-0.1c0.6-0.1,1.2-0.2,1.8-0.4c5.3-1.1,10.8-3.4,13.5-8.1
						c2.6-4.6,2-10.4,4.2-15.2c1.9-4.2,5.7-7.2,10.1-9h0c0.2-0.1,0.4-0.2,0.6-0.2c1.5-0.6,3.1-1.1,4.7-1.5c6.3-1.5,12.9-1.5,19.2-3
						c5.9-1.4,11.9-4.7,14.6-10.1c0.2-0.3,0.3-0.6,0.4-1c0,0.1,0.1,0.3,0.1,0.4C635.1,552.6,632.4,560.6,628.8,567.6z"/>
				</g>
				<g>
					<path class="st1" d="M627.5,559.9c4.3-4.6,6.3-10,5.5-14.8c0-0.1-0.1-0.3-0.1-0.4c-0.1,0.3-0.3,0.7-0.4,1
						c0.5,4.5-1.5,9.5-5.4,13.8c-2.2,2.3-4.7,4.3-7.2,6.2h0c-0.2,0.1-0.4,0.3-0.6,0.4c-0.3,0.2-0.5,0.4-0.8,0.6
						c-1.5,1.1-3,2.2-4.5,3.4c-2.9,2.3-5.5,4.9-8,7.6c-5.2-4.8-9.4-10.8-12.1-17.3c-0.2,0.1-0.4,0.2-0.6,0.2
						c2.7,6.7,7,12.7,12.3,17.6c-2.5,2.7-4.7,5.6-6.9,8.6c-0.1,0.2-0.3,0.3-0.4,0.5c-2.2,3-4.3,6.1-6.3,9.2c-2.5,3.8-5,7.6-7.4,11.6
						c-8.2-2.9-15.4-8.1-20.9-14.8c-0.2,0-0.5,0.1-0.7,0.1c5.6,6.9,13,12.2,21.3,15.2c-2.4,4-4.8,8.2-7.1,12.5
						c-0.1,0.2-0.2,0.4-0.3,0.6c-1.3,2.5-2.5,4.9-3.6,7.5c-1.7-0.1-3.5-0.8-5.2-2c-2.2-1.5-4-3.7-5.7-5.8c-1.7-2-3.5-4.3-5.9-5.9
						c-4.1-2.8-9.3-3.3-12.9-3.4c-0.4,0-0.8,0-1.2,0c0.1,0.2,0.2,0.4,0.3,0.6c0.3,0,0.6,0,0.8,0c3.5,0.1,8.6,0.6,12.6,3.3
						c2.3,1.5,4.1,3.8,5.8,5.8c1.7,2.1,3.6,4.3,5.9,5.9c1.7,1.2,3.5,1.9,5.3,2.1c-1,2.1-1.9,4.3-2.7,6.5c-3.8,9.8-6.1,19.3-6.9,28.4
						c0.2,0,0.4,0,0.6,0c0.8-9.1,3.1-18.5,6.9-28.2c0.9-2.3,1.8-4.5,2.8-6.7c0.1-0.2,0.2-0.4,0.3-0.6c1.1-2.4,2.3-4.8,3.5-7.1
						c3.7,3.1,7.9,5.8,12.4,7.9c0.2-0.2,0.4-0.3,0.7-0.4c-4.6-2.1-8.9-4.8-12.8-8c2.3-4.4,4.7-8.6,7.2-12.7c0.1-0.2,0.2-0.4,0.3-0.6
						c2.4-3.9,4.9-7.7,7.3-11.5c2-3.1,4.1-6.2,6.3-9.2c5.8,3.5,12.2,6,18.8,7.4c0-0.2,0-0.4,0-0.6c-6.5-1.4-12.8-3.8-18.5-7.2
						c2.1-2.9,4.4-5.8,6.8-8.5c0.1-0.2,0.3-0.3,0.4-0.5c2.4-2.7,5-5.2,7.9-7.5c1.4-1.2,3-2.3,4.4-3.4c0.4-0.3,0.7-0.5,1.1-0.8
						c2.7,1.2,5.6,1.8,8.5,1.9c0.1-0.2,0.2-0.4,0.3-0.6c-2.8,0-5.7-0.6-8.3-1.7C623,564.1,625.4,562.2,627.5,559.9z"/>
				</g>
			</g>
		</g>
	</g>
	<g>
		<g>
			<g>
				<g>
					<path class="st1" d="M577.9,294l-27.1-35l-36,21.1c-7.5-5.7-15.6-10.3-24.1-13.8l0-41.8l-43.9-5.6l-10.5,40.4
						c-9.1,1.2-18.1,3.6-26.8,7.3l-29.5-29.5l-35,27.1l21.1,36c-5.7,7.5-10.3,15.6-13.8,24.1l-41.8,0l-5.6,43.9l40.4,10.5
						c1.2,9.1,3.6,18.1,7.3,26.8L323,435l27.1,35l36-21.1c7.5,5.7,15.6,10.3,24.1,13.8l0,41.8l43.9,5.6l10.5-40.4
						c9.1-1.2,18.1-3.6,26.8-7.3l29.5,29.5l35-27.1l-21.1-36c5.7-7.5,10.3-15.6,13.8-24.1l41.8,0l5.6-43.9l-40.4-10.5
						c-1.2-9.1-3.6-18.1-7.3-26.8L577.9,294z"/>
				</g>
			</g>
			<g>
				<g>
					<path class="st5" d="M495,295.8l-2.4,3.2c7.3,4.7,13.9,10.6,19.5,17.8c7.3,9.5,12.1,20.1,14.5,31.1l0,0l4.1,0.2
						c-2.4-11.9-7.5-23.4-15.4-33.7C509.4,306.9,502.6,300.7,495,295.8z M527.9,372.1c-2,20.6-12.2,40.4-29.8,54
						c-20.5,15.8-46.3,19.8-69.5,13.1l-2.1,3.5c24.5,7.5,52.2,3.4,74-13.5c18.5-14.3,29.2-35,31.3-56.6L527.9,372.1z M400.4,299.7
						c-35.7,27.6-42.3,79.1-14.7,114.8c0.4,0.5,0.7,0.9,1.1,1.4l2.6-3.1c-0.2-0.2-0.4-0.5-0.5-0.7c-26.3-34-20-83,14-109.3
						c5.7-4.4,11.9-7.9,18.3-10.5l0.2-4.3C414,290.8,406.9,294.7,400.4,299.7z"/>
				</g>
			</g>
			<g>
				<g>
					<path class="st5" d="M468.4,387.8c-12.8,9.9-31.3,7.5-41.2-5.3c-8.6-11.2-8-26.6,0.8-36.9l-2.5-3.2
						c-10.5,11.8-11.4,29.7-1.5,42.6c11.3,14.6,32.2,17.2,46.8,6c0.4-0.3,0.7-0.6,1.1-0.9l-1.8-3.7
						C469.6,386.8,469,387.3,468.4,387.8z M442.4,332.1l1.3,3.8c10.9-2.5,22.7,1.3,30,10.6c6.8,8.7,7.8,20.1,3.7,29.6l3.4,2.1
						c4.9-10.9,3.8-24.1-4-34.1C468.5,333.3,454.8,329.1,442.4,332.1z"/>
				</g>
			</g>
		</g>
		<g>
			<g>
				<g>
					<path class="st1" d="M320.2,418l-6.8-32.2l-30.9,2.5c-3.2-6.2-7.1-11.9-11.7-17l13.5-28l-27.6-18L236.5,349
						c-6.5-2.1-13.3-3.4-20.3-3.8L206,316l-32.2,6.8l2.5,30.9c-6.2,3.2-11.9,7.1-17,11.7l-28-13.5l-18,27.6l23.7,20.1
						c-2.1,6.5-3.4,13.3-3.8,20.3l-29.3,10.2l6.8,32.2l30.9-2.5c3.2,6.2,7.1,11.9,11.7,17l-13.5,28l27.6,18l20.1-23.7
						c6.5,2.1,13.3,3.4,20.3,3.8l10.2,29.3l32.2-6.8l-2.5-30.9c6.2-3.2,11.9-7.1,17-11.7l28,13.5l18-27.6l-23.7-20.1
						c2.1-6.5,3.4-13.3,3.8-20.3L320.2,418z"/>
				</g>
			</g>
			<g>
				<g>
					<path class="st5" d="M264.1,392.5l-2.7,1.3c3.4,5.5,5.9,11.6,7.3,18.2c1.8,8.7,1.6,17.4-0.3,25.5l0,0l2.7,1.4
						c2.2-8.7,2.5-18.1,0.5-27.5C270.1,404.6,267.5,398.2,264.1,392.5z M261.5,454.2c-8,13.2-21.2,23.1-37.4,26.5
						c-18.8,4-37.4-1.7-50.7-13.6l-2.6,1.7c14,12.9,33.9,19.1,53.9,14.9c17-3.6,30.8-14,39.2-27.7L261.5,454.2z M199.4,364.5
						c-32.8,7-53.9,39.3-46.9,72.1c0.1,0.4,0.2,0.9,0.3,1.3l2.7-1.3c-0.1-0.2-0.1-0.4-0.1-0.6c-6.6-31.2,13.4-62,44.6-68.6
						c5.3-1.1,10.5-1.5,15.7-1.1l1.5-2.8C211.4,362.9,205.5,363.3,199.4,364.5z"/>
				</g>
			</g>
			<g>
				<g>
					<path class="st5" d="M216.6,445.4c-11.8,2.5-23.4-5.1-25.9-16.8c-2.2-10.3,3.3-20.4,12.5-24.5l-0.6-2.9
						c-10.8,4.5-17.2,16.2-14.7,28c2.8,13.4,16,22,29.4,19.1c0.3-0.1,0.7-0.2,1-0.2l-0.1-3C217.6,445.2,217.1,445.3,216.6,445.4z
						 M217.1,399.8l-0.3,2.9c8.1,1.8,14.8,8.2,16.6,16.8c1.7,8-1.3,16-7.1,21l1.6,2.5c6.8-5.7,10.3-14.9,8.3-24.1
						C234.2,409,226.4,401.8,217.1,399.8z"/>
				</g>
			</g>
		</g>
		<g>
			<g>
				<g>
					<path class="st1" d="M341.8,237.5l-5.8-21.4l-20.7,2.9c-2.4-4.1-5.2-7.7-8.5-11l8-19.3l-19.2-11l-12.6,16.7
						c-4.4-1.2-9.1-1.8-13.7-1.7l-8-19.3l-21.4,5.8l2.9,20.7c-4.1,2.4-7.7,5.2-11,8.5l-19.3-8l-11,19.2l16.7,12.6
						c-1.2,4.4-1.8,9.1-1.7,13.7l-19.3,8l5.8,21.4l20.7-2.9c2.4,4.1,5.2,7.7,8.5,11l-8,19.3l19.2,11l12.6-16.7
						c4.4,1.2,9.1,1.8,13.7,1.7l8,19.3l21.4-5.8l-2.9-20.7c4.1-2.4,7.7-5.2,11-8.5l19.3,8l11-19.2l-16.7-12.6
						c1.2-4.4,1.8-9.1,1.7-13.7L341.8,237.5z"/>
				</g>
			</g>
			<g>
				<g>
					<path class="st5" d="M303.1,222.6l-1.7,1c2.5,3.5,4.4,7.6,5.6,12c1.6,5.8,1.8,11.6,0.8,17.1l0,0l1.9,0.9c1.2-6,1-12.3-0.7-18.5
						C307.7,230.5,305.7,226.3,303.1,222.6z M303.8,264.1c-4.9,9.1-13.3,16.3-24.1,19.3c-12.5,3.4-25.2,0.3-34.6-7.2l-1.7,1.2
						c9.9,8.1,23.5,11.5,36.8,7.9c11.3-3.1,20.1-10.6,25.3-20.1L303.8,264.1z M258.7,206.3c-21.8,5.9-34.6,28.5-28.7,50.2
						c0.1,0.3,0.2,0.6,0.2,0.8l1.8-0.9c0-0.1-0.1-0.3-0.1-0.4c-5.6-20.7,6.6-42.1,27.3-47.8c3.5-1,7-1.4,10.5-1.4l0.9-2
						C266.7,204.8,262.7,205.2,258.7,206.3z"/>
				</g>
			</g>
			<g>
				<g>
					<path class="st5" d="M273.3,260c-7.8,2.1-15.9-2.5-18-10.3c-1.9-6.8,1.4-13.8,7.4-16.9l-0.5-2c-7.1,3.4-11,11.5-8.8,19.4
						c2.4,8.9,11.6,14.1,20.5,11.7c0.2-0.1,0.5-0.1,0.7-0.2l-0.2-2C274,259.8,273.7,259.9,273.3,260z M271.9,229.3l-0.1,2
						c5.5,0.9,10.2,4.9,11.8,10.6c1.5,5.3-0.2,10.8-3.9,14.4l1.2,1.6c4.3-4.1,6.3-10.4,4.7-16.5
						C283.7,234.8,278.2,230.3,271.9,229.3z"/>
				</g>
			</g>
		</g>
	</g>
	<g>
		<g>
			<g>
				<g>
					<path class="st5" d="M475.1,285.3v335.6c0,21.8-17.7,39.5-39.5,39.5H264.5c-8.9,0-17.2-3-23.8-8c-9.6-7.2-15.7-18.7-15.7-31.6
						V285.3c0-21.8,17.7-39.5,39.5-39.5h171.1C457.4,245.8,475.1,263.5,475.1,285.3z"/>
				</g>
			</g>
			<g>
				<g>
					<path class="st6" d="M435.5,663.6H264.5c-23.5,0-42.6-19.1-42.6-42.6V285.3c0-23.5,19.1-42.6,42.6-42.6h171.1
						c23.5,0,42.6,19.1,42.6,42.6v335.6C478.1,644.4,459,663.6,435.5,663.6z M264.5,248.9c-20.1,0-36.4,16.3-36.4,36.4v335.6
						c0,20.1,16.3,36.4,36.4,36.4h171.1c20.1,0,36.4-16.3,36.4-36.4V285.3c0-20.1-16.3-36.4-36.4-36.4H264.5z"/>
				</g>
			</g>
		</g>
		<g>
			<path class="st6" d="M416.9,271.1H296.1c-2.5,0-4.5-2-4.5-4.5v-20.7h129.8v20.7C421.4,269,419.4,271.1,416.9,271.1z"/>
		</g>
		<g>
			<g>
				<rect x="332.4" y="256.9" class="st5" width="48.2" height="3.1"/>
			</g>
		</g>
		<g>
			
				<ellipse transform="matrix(0.7071 -0.7071 0.7071 0.7071 -63.7978 362.8387)" class="st5" cx="406.1" cy="258.4" rx="3.8" ry="3.8"/>
		</g>
	</g>
	<g>
		<g>
			<g>
				<path class="st2" d="M396.2,64.9l-3.7,0c-1,0-1.9-0.8-1.9-1.9l0.1-33.2c0-1,0.8-1.9,1.9-1.9l3.7,0c1,0,1.9,0.8,1.9,1.9L398.1,63
					C398.1,64.1,397.3,64.9,396.2,64.9z"/>
			</g>
		</g>
		<g>
			<g>
				<path class="st2" d="M356,80l-2.6,2.6c-0.7,0.7-1.9,0.7-2.7,0L327.3,59c-0.7-0.7-0.7-1.9,0-2.7l2.6-2.6c0.7-0.7,1.9-0.7,2.7,0
					L356,77.3C356.8,78,356.8,79.2,356,80z"/>
			</g>
		</g>
		<g>
			<g>
				<path class="st2" d="M338.2,119l0,3.7c0,1-0.8,1.9-1.9,1.9l-33.2-0.1c-1,0-1.9-0.8-1.9-1.9l0-3.7c0-1,0.8-1.9,1.9-1.9l33.2,0.1
					C337.4,117.1,338.2,118,338.2,119z"/>
			</g>
		</g>
		<g>
			<g>
				<path class="st2" d="M353.3,159.2l2.6,2.6c0.7,0.7,0.7,1.9,0,2.7l-23.6,23.4c-0.7,0.7-1.9,0.7-2.7,0l-2.6-2.6
					c-0.7-0.7-0.7-1.9,0-2.7l23.6-23.4C351.4,158.5,352.5,158.5,353.3,159.2z"/>
			</g>
		</g>
		<g>
			<g>
				<path class="st2" d="M432.5,162l2.6-2.6c0.7-0.7,1.9-0.7,2.7,0l23.4,23.6c0.7,0.7,0.7,1.9,0,2.7l-2.6,2.6
					c-0.7,0.7-1.9,0.7-2.7,0l-23.4-23.6C431.8,163.9,431.8,162.7,432.5,162z"/>
			</g>
		</g>
		<g>
			<g>
				<path class="st2" d="M450.3,122.9l0-3.7c0-1,0.8-1.9,1.9-1.9l33.2,0.1c1,0,1.9,0.8,1.9,1.9l0,3.7c0,1-0.8,1.9-1.9,1.9l-33.2-0.1
					C451.2,124.8,450.3,123.9,450.3,122.9z"/>
			</g>
		</g>
		<g>
			<g>
				<path class="st2" d="M435.3,82.7l-2.6-2.6c-0.7-0.7-0.7-1.9,0-2.7L456.3,54c0.7-0.7,1.9-0.7,2.7,0l2.6,2.6
					c0.7,0.7,0.7,1.9,0,2.7l-23.6,23.4C437.2,83.4,436,83.4,435.3,82.7z"/>
			</g>
		</g>
		<g>
			<g>
				<g>
					<g>
						<path class="st2" d="M442.6,121.1c-0.1,13.8-5.9,26.2-15.1,35c-3.1,2.9-5.5,6.4-7.1,10.2c-1.6,3.8-2.5,8-2.5,12.2
							c0,4.5-1.7,8.5-4.4,11.6c-2.3,2.6-5.4,4.6-9,5.5c-1.4,0.4-2.9,0.5-4.4,0.5l-12.4,0c-4.9,0-9.3-2-12.5-5.2
							c-3.2-3.2-5.2-7.6-5.1-12.5c0-8.6-3.5-16.7-9.7-22.7c-9.1-8.9-14.7-21.2-14.7-35c0-6.8,1.5-13.3,4.1-19.2c0.4-1,0.9-2,1.4-3
							c8.1-15.4,24.2-25.9,42.7-26C420.9,72.4,442.7,94.2,442.6,121.1z"/>
					</g>
				</g>
				<g>
					<g>
						<path class="st4" d="M413.4,190.2c-2.3,2.6-5.4,4.6-9,5.5c-1.4,0.4-2.9,0.5-4.4,0.5l-12.4,0c-4.9,0-9.3-2-12.5-5.2
							c-3.2-3.2-5.2-7.6-5.1-12.5c0-8.6-3.5-16.7-9.7-22.7c-9.1-8.9-14.7-21.2-14.7-35c0-6.8,1.5-13.3,4.1-19.2
							c3,18,10.6,42.9,29.3,59.7C379.1,161.2,373.9,193.7,413.4,190.2z"/>
					</g>
				</g>
				<g>
					<g>
						
							<ellipse transform="matrix(0.7618 -0.6478 0.6478 0.7618 33.9668 295.4103)" class="st5" cx="418.7" cy="101.5" rx="10.2" ry="23.6"/>
					</g>
				</g>
				<g>
					<g>
						<path class="st7" d="M417.4,195.9c0,1.3-0.5,2.5-1.4,3.3c-0.2,0.2-0.5,0.4-0.8,0.6c-0.7,0.5-1.6,0.7-2.5,0.7l-37.7-0.1
							c-0.9,0-1.8-0.3-2.5-0.8c-1.3-0.8-2.1-2.3-2.1-3.9c0-1.3,0.5-2.5,1.4-3.3c0.8-0.8,2-1.4,3.3-1.4l37.7,0.1
							C415.3,191.2,417.4,193.3,417.4,195.9z"/>
					</g>
				</g>
				<g>
					<g>
						<path class="st7" d="M415.1,205c0,1.3-0.5,2.5-1.4,3.3c-0.2,0.2-0.5,0.4-0.7,0.6c-0.7,0.4-1.4,0.7-2.3,0.7c-0.1,0-0.2,0-0.3,0
							l-33.1-0.1c-0.1,0-0.2,0-0.3,0c-0.8-0.1-1.6-0.3-2.3-0.8c-1.3-0.8-2.1-2.3-2.1-3.9c0-1.3,0.5-2.5,1.4-3.3
							c0.8-0.8,2-1.4,3.3-1.4l33.1,0.1C413,200.4,415.1,202.5,415.1,205z"/>
					</g>
				</g>
				<g>
					<g>
						<path class="st7" d="M398.2,229.5l-8.7,0c-4,0-7.2-3.3-7.2-7.3l0-8l23.2,0.1l0,8C405.5,226.2,402.2,229.5,398.2,229.5z"/>
					</g>
				</g>
				<g>
					<g>
						<path class="st7" d="M411.1,214.3c0,1.3-0.5,2.5-1.4,3.3c-0.2,0.2-0.5,0.4-0.8,0.6c-0.7,0.5-1.6,0.7-2.5,0.7l-25-0.1
							c-0.9,0-1.8-0.3-2.5-0.8c-1.3-0.8-2.1-2.3-2.1-3.9c0-1.3,0.5-2.5,1.4-3.3c0.8-0.8,2-1.4,3.3-1.4l25,0.1
							C409,209.7,411.1,211.8,411.1,214.3z"/>
					</g>
				</g>
				<g>
					<g>
						<path class="st6" d="M415.2,199.8c-0.7,0.5-1.6,0.7-2.5,0.7l-37.7-0.1c-0.9,0-1.8-0.3-2.5-0.8L415.2,199.8z"/>
					</g>
				</g>
				<g>
					<g>
						<path class="st6" d="M413,208.9l-2.3,0.7l-33.7-0.1c-0.8-0.1-1.6-0.3-2.3-0.8L413,208.9z"/>
					</g>
				</g>
				<g>
					<g>
						<path class="st6" d="M409,218.2c-0.7,0.5-1.6,0.7-2.5,0.7l-25-0.1c-0.9,0-1.8-0.3-2.5-0.8L409,218.2z"/>
					</g>
				</g>
			</g>
			<g>
				<g>
					<path class="st4" d="M412.1,119.2c-1.8-1.7-4.3-2.6-6.9-2.4c-2.4,0.1-4.5,1.1-5.9,2.7c-1.8,2-2.3,4.6-2.6,6.8
						c-0.3,1.8-0.4,5.8-0.4,10.4c-0.6,0-3.6,0-4.2,0c0-4.6-0.2-8.5-0.4-10.4c-0.3-2.3-0.9-4.8-2.6-6.8c-1.4-1.6-3.6-2.6-5.9-2.7
						c-2.6-0.1-5.1,0.8-6.9,2.4c-3.2,3-4.1,8.1-2.3,12.4c1.5,3.7,4.9,6.7,9.2,8.2c1.5,0.5,3.1,0.9,4.8,1.1c0,9.7-0.2,50-0.2,50.2
						l4.2,0.1c0-0.7,0.2-40.6,0.2-50.1c0.7,0,3.5,0,4.2,0c0,9.6,0.2,49.4,0.2,50.1l4.2-0.1c0-0.2-0.2-40.4-0.2-50.2
						c1.7-0.2,3.3-0.5,4.8-1.1c4.3-1.5,7.6-4.5,9.2-8.2C416.3,127.2,415.3,122.1,412.1,119.2z M384.5,135.8
						c-3.1-1.1-5.6-3.3-6.7-5.8c-1.1-2.7-0.6-5.9,1.3-7.7c0.9-0.8,2.2-1.3,3.5-1.3c0.1,0,0.2,0,0.3,0c1.2,0.1,2.3,0.5,2.9,1.3
						c1,1.2,1.4,3,1.6,4.6c0.2,1.7,0.4,5.3,0.4,9.6C386.6,136.4,385.5,136.1,384.5,135.8z M410.5,129.9c-1.1,2.5-3.6,4.7-6.7,5.8
						c-1,0.4-2.2,0.6-3.4,0.8c0-4.3,0.2-8,0.4-9.6c0.2-1.6,0.6-3.5,1.6-4.6c0.7-0.8,1.7-1.2,2.9-1.3c0.1,0,0.2,0,0.3,0
						c1.3,0,2.6,0.5,3.5,1.3C411.1,124,411.7,127.3,410.5,129.9z"/>
				</g>
			</g>
		</g>
	</g>
	<g>
		<g>
			<rect x="254.5" y="528" class="st1" width="191.1" height="9.7"/>
		</g>
		<g>
			<rect x="254.5" y="550" class="st1" width="191.1" height="9.7"/>
		</g>
		<g>
			<rect x="254.5" y="572.1" class="st1" width="191.1" height="9.7"/>
		</g>
		<g>
			<rect x="254.5" y="594.2" class="st1" width="191.1" height="9.7"/>
		</g>
		<g>
			<g>
				<g>
					<path class="st7" d="M403,383.4h-11.5v-22.3c0-22.9-18.6-41.5-41.5-41.5s-41.5,18.6-41.5,41.5v22.3H297v-22.3
						c0-29.2,23.8-53,53-53s53,23.8,53,53V383.4z"/>
				</g>
			</g>
			<g>
				<g>
					
						<ellipse transform="matrix(0.1602 -0.9871 0.9871 0.1602 -84.548 667.4965)" class="st1" cx="350" cy="383.4" rx="44.3" ry="44.3"/>
				</g>
			</g>
			<g>
				<g>
					<g>
						<rect x="307" y="351.1" class="st6" width="9.1" height="64.6"/>
					</g>
				</g>
			</g>
			<g>
				<g>
					<g>
						<rect x="385.1" y="351.1" class="st6" width="9.1" height="64.6"/>
					</g>
				</g>
			</g>
			<g>
				<g>
					<g>
						<path class="st7" d="M307,351.1L307,351.1v64.6l0,0c-14.3,0-25.9-11.6-25.9-25.9V377C281.1,362.7,292.7,351.1,307,351.1z"/>
					</g>
				</g>
			</g>
			<g>
				<g>
					<g>
						<path class="st7" d="M394.2,351.1L394.2,351.1v64.6l0,0c14.3,0,25.9-11.6,25.9-25.9V377C420.1,362.7,408.5,351.1,394.2,351.1z
							"/>
					</g>
				</g>
			</g>
			<g>
				<g>
					<path class="st1" d="M420.1,514.9H279.9v-52.4c0-17.8,13-32.9,30.5-35.7l39.6-6.2l39.6,6.2c17.6,2.7,30.5,17.9,30.5,35.7V514.9
						z"/>
				</g>
			</g>
		</g>
	</g>
	<g>
		<g>
			<path class="st6" d="M564.7,663.5l-29.4,0c0-1,0.2-2,0.8-2.8c0.7-0.9,1.8-1.4,2.9-1.6c1.1-0.2,2.3-0.1,3.4-0.2
				c2.8-0.1,5.5-0.9,8-2.3c1.3-0.7,2.5-1.6,3.8-2.1l8,0.2c1.1,1.2,1.8,2.7,2.1,4.3C564.8,660.6,564.8,662.1,564.7,663.5z"/>
		</g>
		<g>
			<polygon class="st8" points="564.6,646.2 562.3,654.8 554.3,654.6 554.8,645.3 			"/>
		</g>
		<g>
			<path class="st6" d="M552.1,572.1c-0.1-5.6,0.4-11.2,1.5-16.6c3.9-18.9,10.9-55.2,10.9-55.2c1.1-7.8,7.6-10.1,15.4-9
				c4.6,0.6,47.3,9.5,47.3,9.9l-9.3,144.9l-11.9-0.4l-12.7-114.1l-19.6,35.8l0,0l-8.3,79l-11.4-0.8L552.1,572.1z"/>
		</g>
		<g>
			<path class="st6" d="M618.3,663.5h-29.4c0-1,0.2-2,0.8-2.8c0.7-0.9,1.8-1.4,2.9-1.6c1.1-0.2,2.3-0.1,3.4-0.2
				c2.8-0.1,5.5-0.9,8-2.3c1.3-0.7,2.5-1.6,3.8-2.1l8,0.2c1.1,1.2,1.8,2.7,2.1,4.3C618.4,660.6,618.4,662.1,618.3,663.5z"/>
		</g>
		<g>
			<polygon class="st8" points="616.9,645.9 615.9,654.8 607.9,654.6 606.7,645.5 			"/>
		</g>
		<g>
			<g>
				<g>
					<path class="st9" d="M496.5,400.1c1.5-0.5,3.1,0.2,3.6,1.5c1.7,3.9,3.6,7.6,5.8,11c2.2,3.4,4.8,6.4,7.7,8.8
						c2.9,2.4,6.1,4,9.5,4.7c1.7,0.4,3.4,0.6,5.2,0.6c1.8,0,3.5-0.2,5.3-0.5c3.6-0.7,7.2-1.9,10.7-3.5c3.5-1.6,7-3.6,10.4-5.7
						c3.4-2.2,6.7-4.5,10-7.1c3.3-2.5,6.5-5.2,9.6-7.9c2-1.7,4.6-2.3,7.2-1.9c2.6,0.4,5.1,1.7,7,4v0c1.9,2.3,2.6,5.1,2.3,7.7
						c-0.3,2.6-1.7,5.2-4.1,6.8c-3.8,2.5-7.7,4.9-11.7,7.1c-4,2.3-8.1,4.4-12.4,6.3c-4.3,1.9-8.7,3.6-13.3,5
						c-4.6,1.3-9.5,2.3-14.6,2.5c-2.5,0.1-5.1,0-7.7-0.4c-2.6-0.4-5.1-1-7.6-2c-4.9-1.9-9.3-5-12.6-8.7c-3.4-3.7-5.9-7.8-7.9-12
						c-2-4.2-3.4-8.5-4.6-12.8C494.2,402.1,495,400.6,496.5,400.1z"/>
				</g>
			</g>
			<g>
				<path class="st10" d="M562.7,440.2l22.3-15.6c6.7-4.7,8.9-13.7,4.2-20.4l0,0c-4.7-6.7-14.6-8.7-21.3-4l-22.3,15.6L562.7,440.2z"
					/>
			</g>
		</g>
		<g>
			<path class="st10" d="M594.8,397.1L594.8,397.1c-16.1-1.4-29.9,11.2-30,27.3l-0.4,75.8c25.6,12.4,40.1,8.3,62.7,0.8l-1.6-71.2
				C625.1,412.7,611.9,398.7,594.8,397.1z"/>
		</g>
		<g>
			<path class="st5" d="M564.2,452.1h0.5l0.1-27.7c0.1-15.3,12.5-27.4,27.5-27.4c0.8,0,1.6,0,2.5,0.1c0.5,0,0.9,0.1,1.4,0.2
				c0-0.2-0.1-0.4-0.1-0.5c-0.4-0.1-0.8-0.1-1.2-0.1c-0.8-0.1-1.7-0.1-2.5-0.1c-15.4,0-27.9,12.5-28,27.9L564.2,452.1z M584.6,507.2
				l-0.2,0.5c3.4,0.6,6.8,1,10.2,1c1.5,0,3-0.1,4.5-0.2l0-0.5C594.5,508.3,589.7,508.1,584.6,507.2z M616.4,406.8
				c-0.1,0.1-0.2,0.2-0.4,0.4c5.7,5.9,9.3,13.9,9.6,22.7l0.4,17.3h0.5l-0.4-17.3C625.8,420.9,622.2,412.8,616.4,406.8z M627.2,501
				c-2.7,0.9-5.3,1.7-7.8,2.5c0,0.2,0,0.4,0,0.5c2.5-0.8,5.2-1.6,8-2.6l0.4-0.1l-0.4-16.4l-0.5,0.1L627.2,501z M564,500.5l0.3,0.1
				c1.8,0.9,3.5,1.6,5.2,2.3l0.1-0.5c-1.6-0.7-3.3-1.5-5.1-2.3l0.1-27h-0.5L564,500.5z"/>
		</g>
		<g>
			<g>
				<path class="st8" d="M586.9,388.5l0.6,19.6c4.3,2.6,8.6,2.5,12.8-0.4l-0.6-19.6L586.9,388.5z"/>
			</g>
			<g>
				<path class="st9" d="M586.9,388.5l0.3,8.9c0.9,0.3,1.9,0.5,2.9,0.6c0.3,0,0.6,0,1,0c3.5-0.1,6.8-1.8,8.8-4.6l-0.2-5.3
					L586.9,388.5z"/>
			</g>
			<g>
				<path class="st8" d="M580.7,376.7l0.8,11.5c0.3,4.6,4,8.2,8.6,8.5h0c4.2,0.2,8.1-2.1,9.8-5.9c1.1-2.5,2.1-5.4,3.1-8.5
					c1.5-4.9,0.3-10.3-3.4-14c-3.1-3.1-7-3.9-11.6-2.4C583.4,367.3,580.4,371.8,580.7,376.7z"/>
			</g>
		</g>
		<g>
			<g>
				<g>
					<path class="st7" d="M479.5,368.6c-0.9,0.5-0.9,1.9,0.1,2.4l18.6,8.9c5.4,2.6,7.6,9,5,14.4l-4.6,9.6c-2.6,5.4-9,7.6-14.4,5
						l-18.5-8.9c-1-0.5-2.1,0.4-1.9,1.4c2.4,14.3,14.3,25.7,29.4,26.6c17.7,1.1,32.9-12.3,33.9-30c1-17.4-12.3-32.4-29.7-33.6
						C490.9,364.1,484.7,365.6,479.5,368.6z"/>
				</g>
				<g>
					<path class="st7" d="M629.2,543.4c0.9-0.5,0.9-1.9-0.1-2.4l-18.6-8.9c-5.4-2.6-7.6-9-5-14.4l4.6-9.6c2.6-5.4,9-7.6,14.4-5
						l18.5,8.9c1,0.5,2.1-0.4,1.9-1.4c-2.4-14.3-14.3-25.7-29.4-26.6c-17.7-1.1-32.9,12.3-33.9,30c-1,17.4,12.3,32.4,29.7,33.6
						C617.7,547.9,623.9,546.4,629.2,543.4z"/>
				</g>
			</g>
			<g>
				<polygon class="st7" points="608.5,490.6 584.1,512.5 500.1,421.4 524.5,399.4 				"/>
			</g>
		</g>
		<g>
			<g>
				<g>
					<path class="st8" d="M595.4,527.5c-1.1-1.1-1.5-2.6-0.8-3.8c2.1-3.6,3.6-7.6,4.9-11.6c1.3-4.1,2.2-8.2,2.9-12.4
						c0.2-1.1,0.4-2.1,0.5-3.2l0.4-3.2l0.3-3.2c0.1-1.1,0.2-2.1,0.2-3.2l0.1-1.6l0.1-1.6c0-1.1,0.1-2.1,0.1-3.2c0-2.2,0.1-4.3,0-6.4
						c-0.3-17.2-3.1-34.3-7.2-51.1c-0.1-0.7-0.2-1.3-0.2-2c0-0.7,0.1-1.3,0.2-1.9c0.3-1.3,0.8-2.5,1.6-3.6c1.5-2.2,3.9-3.8,6.8-4.4
						l0,0c2.9-0.6,5.7,0.1,7.9,1.6c1.1,0.8,2.1,1.8,2.8,2.9c0.4,0.6,0.7,1.2,0.9,1.9c0.2,0.7,0.4,1.4,0.5,2.1
						c1.9,18.3,2.3,36.8,0.1,55.2c-0.2,2.3-0.6,4.6-1,6.9c-0.2,1.1-0.4,2.3-0.6,3.4l-0.3,1.7l-0.4,1.7c-0.2,1.1-0.5,2.3-0.7,3.4
						l-0.8,3.4l-0.9,3.4c-0.3,1.1-0.7,2.2-1,3.3c-1.4,4.4-3.1,8.8-5,13c-2,4.2-4.3,8.3-7.3,12.1
						C598.5,528.4,596.6,528.6,595.4,527.5z"/>
				</g>
			</g>
			<g>
				<path class="st10" d="M623.9,451.5l-2.6-27.1c-0.8-8.2-7.5-14.5-15.7-13.7l0,0c-8.2,0.8-14.8,8.3-14,16.5l2.6,27.1L623.9,451.5z
					"/>
			</g>
			<g>
				<path class="st5" d="M595,415.6l0.4,0.3c2.6-2.9,6.1-4.8,10.1-5.2c5.4-0.5,10.1,2,12.9,6.1l0.4-0.3c-2.7-3.9-7.1-6.4-12-6.4
					c-0.5,0-0.9,0-1.4,0.1C601.6,410.5,597.7,412.5,595,415.6z M591.6,432.9l1.3,13.6h0.5l-1.3-13.7L591.6,432.9z M594,452.2
					l-0.5,0.1l0.2,2.6l16.6-1.6l0-0.5l-16.1,1.5L594,452.2z M622.1,432.4l1.5,15.7l0.5-0.1l-1.5-15.7H622.1z"/>
			</g>
		</g>
		<g>
			<g>
				<path class="st6" d="M583,370.6c0,0-2.2,3.8-2,10.9c0,0-1.4-7.1-0.1-12.6L583,370.6z"/>
			</g>
			<g>
				<path class="st6" d="M607.1,382.2c0,0,6.4-9.1,0.1-16.4c-6.8-7.8-11.4-7.1-16.4-5.9c-6.3,1.6-9.7,3.7-12.1,3.1
					c-1.3-0.3-2.4-1.4-2.6-0.7s-0.7,5,2.9,8.3c3.5,3.3,8.2,2.9,12.9,0.6c4.7-2.3,6.8-1.9,8.7,1c2,3.1-0.9,8.5-0.9,8.5l1.4,0.5
					C601,381.3,606.5,378.3,607.1,382.2z"/>
			</g>
		</g>
		<g>
			
				<ellipse transform="matrix(0.9996 -2.970103e-02 2.970103e-02 0.9996 -11.0554 18.073)" class="st8" cx="602.8" cy="381.2" rx="4.8" ry="4.3"/>
		</g>
	</g>
	<g>
		<g>
			<path class="st6" d="M81.4,650.6l25.7,13c0.4-0.9,0.7-1.8,0.5-2.8c-0.2-1.1-1-2-1.9-2.7c-0.9-0.7-1.9-1.1-2.9-1.7
				c-2.4-1.4-4.4-3.3-6-5.5c-0.8-1.2-1.5-2.5-2.4-3.5l-7.1-3.4c-1.5,0.6-2.8,1.6-3.8,2.8C82.7,647.9,82,649.2,81.4,650.6z"/>
		</g>
		<g>
			<path class="st6" d="M56.4,659.8l28.6,3.7c0.1-1,0-1.9-0.5-2.8c-0.6-1-1.6-1.6-2.7-1.9c-1.1-0.3-2.2-0.4-3.3-0.6
				c-2.7-0.5-5.3-1.6-7.5-3.3c-1.1-0.9-2.2-1.9-3.5-2.5l-7.8-0.8c-1.2,1-2.1,2.4-2.6,3.9C56.7,657,56.5,658.4,56.4,659.8z"/>
		</g>
		<g>
			<g>
				<polygon class="st6" points="68.5,564.6 68.5,564.6 68.5,564.6 				"/>
			</g>
			<g class="st11">
				<polygon class="st6" points="72.3,504.3 72.3,504.3 72.3,504.3 72.3,504.3 				"/>
			</g>
			<g>
				<g>
					<polygon class="st6" points="68.5,564.6 68.5,564.6 68.5,564.6 					"/>
				</g>
				<g>
					<polygon class="st6" points="68.5,564.6 68.5,564.6 68.5,564.6 					"/>
				</g>
				<g>
					<path class="st6" d="M133.5,561.9L133.5,561.9L120,501.2c0,0-61.8,3.7-61.6,5.1l0.3,145.8l10.2,0.6l21.8-114l19.3,30.4
						L86.1,644l9.4,3.8l37.4-80.3C133.6,565.6,133.8,563.7,133.5,561.9z M68.5,564.6C68.5,564.6,68.5,564.6,68.5,564.6
						C68.5,564.6,68.5,564.6,68.5,564.6L68.5,564.6z"/>
				</g>
				<g class="st11">
					<polygon class="st6" points="68.5,564.6 68.5,564.6 68.5,564.6 					"/>
				</g>
			</g>
		</g>
		<g>
			<g>
				<path class="st9" d="M193.2,383.5c-3.8,1.8-7.3,3.8-10.9,5.5c-0.9,0.5-1.8,0.9-2.7,1.3c-0.9,0.4-1.8,0.9-2.7,1.3l-2.7,1.2
					l-1.4,0.6l-1.4,0.6c-7.3,3-14.8,5.4-22.4,7.2c-3.8,0.8-7.6,1.7-11.5,2.3l-2.9,0.5c-0.5,0.1-1,0.2-1.4,0.2l-1.5,0.2l-5.8,0.7
					c-0.5,0.1-1,0.1-1.5,0.2l-1.5,0.1l-2.9,0.2l-2.9,0.2l-1.5,0.1l-0.7,0.1l-0.7,0l-5.9,0.2c-2,0.1-3.9,0.1-5.9,0.1
					c-2.5,0-4.7,1.3-6.3,3.2c-1.6,1.9-2.5,4.6-2.4,7.5c0.1,2.9,1.3,5.4,3.2,7.1c1.9,1.7,4.4,2.6,7,2.3c2.1-0.2,4.2-0.7,6.2-1
					l6.2-1.1l0.8-0.1l0.8-0.2l1.6-0.3l3.1-0.7l3.1-0.7l1.5-0.3c0.5-0.1,1-0.3,1.5-0.4l6.1-1.7l1.5-0.4c0.5-0.1,1-0.3,1.5-0.5l3-1
					c4-1.2,8-2.8,12-4.2c7.8-3.2,15.5-6.9,22.6-11.2l1.4-0.8l1.3-0.8l2.6-1.7c0.9-0.6,1.7-1.2,2.6-1.7c0.9-0.6,1.7-1.2,2.6-1.8
					c3.4-2.4,6.7-4.8,9.9-7c1.1-0.7,1.4-2.3,0.7-3.7l0,0C196,383.5,194.5,382.9,193.2,383.5z"/>
			</g>
			<g>
				<path class="st10" d="M135.9,428.2l-26.6,1.9c-8.1,0.6-15.3-4.9-15.8-13l0,0c-0.6-8.1,5.7-15.6,13.7-16.2l26.6-1.9L135.9,428.2z
					"/>
			</g>
		</g>
		<g>
			<path class="st10" d="M82.6,401.2L82.6,401.2c15.6-2.5,30,8.8,31.2,24.6l6.2,75.4c-24.2,14-39.4,10.8-62,5.1l-3.2-71
				C54.1,418.6,66,403.9,82.6,401.2z"/>
		</g>
		<g>
			<path class="st5" d="M59.1,415.9c-1.9,3-3.3,6.3-4.1,9.8l0.8,0.3c0.9-3.4,2.2-6.7,4.1-9.6L59.1,415.9z M58,506.3l-0.8-18
				l-0.8,0.1l0.8,18.5l0.6,0.2c1.9,0.5,3.8,1,5.6,1.4l0.2-0.8C61.8,507.3,59.9,506.8,58,506.3z M117.2,456.9l-0.8,0.1l3.6,44.3
				c-4.6,2.7-8.9,4.7-12.9,6.2l0.2,0.9c4.2-1.6,8.6-3.7,13.2-6.3l0.5-0.3L117.2,456.9z M79.8,511.6c2.3,0.3,4.6,0.4,6.9,0.4v-0.8
				c-2.2,0-4.3-0.1-6.5-0.4L79.8,511.6z M55.4,447.7l-0.8-0.1l0.8,17.1h0.8L55.4,447.7z M114.7,425.7c-1.1-14.6-13.4-25.9-28-25.7
				c-0.6,0-1.2,0-1.8,0.1v0.8c0.7-0.1,1.4-0.1,2.1-0.1c13.8,0,25.8,10.7,26.9,25l1.1,13.5l0.8-0.2L114.7,425.7z"/>
		</g>
		<g>
			<g>
				<g>
					
						<rect x="125" y="391.5" transform="matrix(0.4057 -0.914 0.914 0.4057 -282.6095 369.79)" class="st1" width="36.1" height="21.5"/>
				</g>
			</g>
			<g>
				<g>
					
						<rect x="58.4" y="452.9" transform="matrix(0.4057 -0.914 0.914 0.4057 -361.2794 382.3822)" class="st7" width="110.1" height="32.3"/>
				</g>
			</g>
			<g>
				<g>
					<path class="st7" d="M254.3,353.9c18.4-41.4-0.3-89.9-41.7-108.3c-41.3-18.4-89.9,0.3-108.3,41.7c-16.9,38-2.4,82.1,32.1,103.3
						c3,1.9,6.2,3.5,9.6,5c3.3,1.5,6.7,2.7,10.1,3.7C195,410.8,237.4,391.9,254.3,353.9z M124,296c13.5-30.5,49.4-44.3,79.9-30.8
						c30.5,13.5,44.3,49.4,30.8,79.9c-13.5,30.5-49.4,44.3-79.9,30.8C124.3,362.3,110.5,326.5,124,296z"/>
				</g>
				<g class="st12">
					<path class="st3" d="M154.8,375.9c-30.5-13.5-44.3-49.4-30.8-79.9c13.5-30.5,49.4-44.3,79.9-30.8
						c30.5,13.5,44.3,49.4,30.8,79.9C221.1,375.6,185.3,389.4,154.8,375.9z"/>
				</g>
			</g>
		</g>
		<g>
			<g>
				<path class="st8" d="M141,444.9c-1.4-0.7-3-0.3-3.8,0.9c-2.4,3.6-4.9,7.2-7.6,10.5c-1.3,1.7-2.7,3.3-4.2,4.8
					c-1.4,1.5-2.9,2.9-4.5,4.2c-1.5,1.2-3.1,2.3-4.7,3.1c-0.4,0.2-0.8,0.4-1.2,0.5l-0.6,0.2l-0.3,0.1l-0.3,0.1
					c-0.8,0.3-1.5,0.4-2.2,0.5c-0.7,0.1-1.4,0-2,0c-0.7-0.1-1.3-0.3-1.9-0.5c-0.6-0.3-1.3-0.6-1.9-0.9c-0.6-0.4-1.3-0.8-1.9-1.4
					c-1.3-1-2.6-2.3-3.8-3.7c-1.2-1.4-2.4-3-3.5-4.6c-2.2-3.3-4.2-6.9-6.1-10.7c-1.9-3.8-3.6-7.6-5.2-11.6c-1.6-3.9-3.2-8-4.7-12
					c-1-2.5-3-4.4-5.4-5.4c-2.4-1-5.3-1-7.9,0.1c-2.7,1.1-4.6,3.2-5.5,5.7c-0.9,2.5-0.9,5.3,0.4,7.9c2.1,4,4.3,8,6.7,12
					c2.3,4,4.8,7.9,7.4,11.8c2.6,3.9,5.5,7.7,8.7,11.4c1.6,1.8,3.4,3.6,5.3,5.3c1.9,1.7,4,3.3,6.4,4.8c1.2,0.7,2.5,1.3,3.8,1.9
					c1.4,0.6,2.8,1,4.3,1.3c1.5,0.3,3.1,0.4,4.6,0.4c1.6-0.1,3.1-0.3,4.6-0.6c1.4-0.4,2.9-0.9,4.1-1.5l0.5-0.2l0.5-0.2l0.9-0.5
					c0.6-0.4,1.2-0.7,1.7-1.1c2.2-1.5,4.1-3.3,5.8-5.1c1.7-1.8,3.2-3.7,4.6-5.6c1.4-1.9,2.7-3.9,3.8-5.8c2.4-3.9,4.4-8,6.4-12.1
					C142.9,447.2,142.3,445.6,141,444.9z"/>
			</g>
			<g>
				<path class="st10" d="M71.5,462.3l-11.1-24.3c-3.4-7.3-0.8-16,6.6-19.4l0,0c7.3-3.4,16.6-0.2,20,7.2l11.2,24.3L71.5,462.3z"/>
			</g>
			<g>
				<path class="st5" d="M87.6,425.5c-0.4-0.9-0.9-1.8-1.5-2.5l-0.6,0.5c0.5,0.7,1,1.5,1.4,2.4l1.1,2.4c0.2-0.1,0.5-0.2,0.7-0.3
					L87.6,425.5z M77.5,459.6l-6,2.8l-3.1-6.8l-0.6,0.5l3.4,7.4l6.7-3.1L77.5,459.6z M61.4,442.2l4.2,9.1l0.7-0.3l-4.1-8.9H61.4z
					 M73.1,416.6c-2.3,0-4.5,0.5-6.5,1.4c-3.2,1.5-5.6,3.9-7.1,7l0.6,0.5c1.3-2.9,3.6-5.3,6.8-6.8c3.8-1.7,8.1-1.7,11.9-0.3l0.7-0.6
					C77.5,417,75.4,416.6,73.1,416.6z M93.3,437.8l-0.7,0.4l2.8,6.2l0.6-0.5L93.3,437.8z M90.3,453.7l-5.9,2.7l0.2,0.7l6.1-2.8
					L90.3,453.7z"/>
			</g>
		</g>
		<g>
			<g>
				<g>
					<path class="st8" d="M88.9,391.1l0.1,19.3c-4.2,2.8-8.4,2.8-12.6,0.1l-0.1-19.3L88.9,391.1z"/>
				</g>
				<g>
					<path class="st9" d="M88.9,391.1l0.1,8.7c-0.9,0.3-1.8,0.6-2.8,0.7c-0.3,0-0.6,0-1,0c-3.5,0-6.7-1.6-8.9-4.2l0-5.2L88.9,391.1z
						"/>
				</g>
				<g>
					<path class="st8" d="M94.6,379.3l-0.3,8.1l-0.1,3.3c-0.1,4.5-3.6,8.3-8.2,8.7c-1.5,0.1-3-0.1-4.3-0.6c-0.3-0.1-0.6-0.2-0.9-0.4
						c-0.2-0.1-0.4-0.2-0.5-0.3c-1.7-1-3.2-2.4-4.1-4.3c-0.8-1.6-1.5-3.3-2.2-5.1c-0.4-1-0.8-2.1-1.2-3.2
						c-1.7-4.8-0.7-10.2,2.8-13.9c3-3.2,6.7-4.1,11.3-2.8C91.6,370.1,94.7,374.4,94.6,379.3z"/>
				</g>
				<g>
					<path class="st6" d="M78.8,384.4l1.3-0.9c0,0-3.1-5.5-2.4-7.5c1.1-2.8,8-4,11.6-3.5c1.1,0.2,2,0.5,2.5,1.5
						c1.1,2.2,2.6,6.7,2.5,11.2c0,0,3.5-14-1.6-20.8c-3.3-4.4-6.2-7.4-12.2-4c-9.4,5.5-13.9,14.1-10.9,25.6L76,383L78.8,384.4z"/>
				</g>
			</g>
			<g>
				<path class="st8" d="M79,385.2c0,2.3-2.1,4.2-4.7,4.2c-2.6,0-4.7-1.8-4.7-4.2c0-2.3,2.1-4.2,4.7-4.2
					C76.9,381.1,79,382.9,79,385.2z"/>
			</g>
		</g>
	</g>
	<g>
		<path class="st6" d="M685.6,672.1H14.4c-2.5,0-4.4-2-4.4-4.4l0,0c0-2.5,2-4.4,4.4-4.4h671.1c2.5,0,4.4,2,4.4,4.4l0,0
			C690,670.1,688,672.1,685.6,672.1z"/>
	</g>
	<g>
		<path class="st1" d="M257.2,106.1c0,11.8-6,22.1-15.1,28.2H123.9c-13-4-22.5-16.1-22.5-30.4c0-17.5,14.2-31.7,31.8-31.7
			c0.3,0,0.6,0,1,0c6.7-19.1,24.9-32.8,46.3-32.8c21.5,0,39.6,13.8,46.3,33C243.8,74.1,257.2,88.6,257.2,106.1z"/>
	</g>
	<g>
		<g>
			
				<rect x="520.9" y="134.7" transform="matrix(-1 -1.224647e-16 1.224647e-16 -1 1118.8781 325.5161)" class="st10" width="77.1" height="56.1"/>
		</g>
		<g>
			<polygon class="st13" points="520.9,190.8 520.9,212.2 551.3,190.8 			"/>
		</g>
		<g>
			<g>
				<g>
					<path class="st5" d="M573.6,157.4c0,0.6-0.1,1.2-0.2,1.8c-0.8,3.8-3.5,7.1-7.3,8.7c-1.7,0.7-2.8,2.4-2.8,4.2v2h-6.4v-2
						c0-4.4,2.6-8.4,6.7-10.1c1.8-0.8,3.1-2.3,3.4-4c0.1-0.3,0.1-0.5,0.1-0.5c0-2.1-0.8-4.1-2.4-5.6c-1.5-1.5-3.5-2.2-5.7-2.1
						c-4,0.2-7.2,3.4-7.4,7.4c0,0.4,0,0.9,0,1.3h-6.4c0-0.5,0-1,0-1.5c0.3-7.3,6.3-13.2,13.6-13.5c3.9-0.1,7.5,1.2,10.3,3.9
						C572,149.9,573.6,153.5,573.6,157.4z"/>
				</g>
			</g>
			<g>
				<g>
					<path class="st5" d="M563.3,179.1c0,1.8-1.4,3.2-3.2,3.2s-3.2-1.4-3.2-3.2c0-1.8,1.4-3.2,3.2-3.2S563.3,177.3,563.3,179.1z"/>
				</g>
			</g>
		</g>
	</g>
	<g>
		<g>
			<rect x="74.9" y="152.3" class="st10" width="77.1" height="56.1"/>
		</g>
		<g>
			<polygon class="st13" points="152,208.4 152,229.8 121.6,208.4 			"/>
		</g>
		<g>
			<polygon class="st5" points="132.1,172 122,164.8 110.7,180.6 101,173.7 93.8,183.8 113.6,197.9 120.8,187.8 120.8,187.8 			"/>
		</g>
	</g>
</g>
</svg>
