<?xml version="1.0" encoding="UTF-8"?>
<svg width="750px" height="1125px" viewBox="0 0 750 1125" version="1.1" xmlns="http://www.w3.org/2000/svg" xmlns:xlink="http://www.w3.org/1999/xlink">
    <title>11-蓝色卫衣男背影</title>
    <defs>
        <linearGradient x1="50%" y1="0%" x2="50%" y2="100%" id="linearGradient-1">
            <stop stop-color="#FFFFFF" offset="0%"></stop>
            <stop stop-color="#D4E7FF" offset="100%"></stop>
        </linearGradient>
        <linearGradient x1="50%" y1="0%" x2="50%" y2="100%" id="linearGradient-2">
            <stop stop-color="#E3EDFB" offset="0%"></stop>
            <stop stop-color="#F8FCFF" stop-opacity="0.652289117" offset="99.9366554%"></stop>
        </linearGradient>
        <linearGradient x1="53.8606949%" y1="77.5898441%" x2="50%" y2="24.4576761%" id="linearGradient-3">
            <stop stop-color="#D7E8FF" stop-opacity="0" offset="0%"></stop>
            <stop stop-color="#6A85A7" offset="100%"></stop>
        </linearGradient>
        <linearGradient x1="-1.11022302e-14%" y1="50%" x2="100%" y2="50%" id="linearGradient-4">
            <stop stop-color="#B86363" offset="0.0897381757%"></stop>
            <stop stop-color="#6B3C3C" offset="100%"></stop>
        </linearGradient>
        <linearGradient x1="59.1231211%" y1="1.70570472%" x2="52.6498975%" y2="58.1699362%" id="linearGradient-5">
            <stop stop-color="#36657E" offset="0%"></stop>
            <stop stop-color="#173240" offset="100%"></stop>
        </linearGradient>
        <linearGradient x1="19.642429%" y1="21.544018%" x2="33.904914%" y2="52.1910177%" id="linearGradient-6">
            <stop stop-color="#38647A" offset="0%"></stop>
            <stop stop-color="#173240" offset="100%"></stop>
        </linearGradient>
        <radialGradient cx="50%" cy="-8.20109232%" fx="50%" fy="-8.20109232%" r="142.578843%" gradientTransform="translate(0.500000,-0.082011),scale(1.000000,0.758886),rotate(90.000000),translate(-0.500000,0.082011)" id="radialGradient-7">
            <stop stop-color="#5D4840" offset="0%"></stop>
            <stop stop-color="#3E2B28" offset="18.0654809%"></stop>
            <stop stop-color="#260F0C" offset="39.7624798%"></stop>
            <stop stop-color="#1E0505" offset="100%"></stop>
        </radialGradient>
        <linearGradient x1="50.872868%" y1="77.9065755%" x2="55.4577472%" y2="88.9388267%" id="linearGradient-8">
            <stop stop-color="#E1B5B5" offset="0%"></stop>
            <stop stop-color="#F4D1C7" offset="100%"></stop>
        </linearGradient>
        <linearGradient x1="39.6538051%" y1="46.9387992%" x2="50%" y2="58.3273452%" id="linearGradient-9">
            <stop stop-color="#82ABE7" offset="0%"></stop>
            <stop stop-color="#396BB6" offset="100%"></stop>
        </linearGradient>
        <linearGradient x1="49.5468893%" y1="1.84257397%" x2="50%" y2="100%" id="linearGradient-10">
            <stop stop-color="#618ED1" offset="0%"></stop>
            <stop stop-color="#29589F" offset="100%"></stop>
        </linearGradient>
        <linearGradient x1="53.7492%" y1="68.4059537%" x2="46.6530916%" y2="48.0855767%" id="linearGradient-11">
            <stop stop-color="#3160A6" offset="0%"></stop>
            <stop stop-color="#638FD2" offset="100%"></stop>
        </linearGradient>
        <linearGradient x1="50%" y1="100%" x2="50%" y2="3.061617e-15%" id="linearGradient-12">
            <stop stop-color="#5382C7" offset="0%"></stop>
            <stop stop-color="#769DD7" offset="100%"></stop>
        </linearGradient>
        <linearGradient x1="56.411417%" y1="74.3097062%" x2="50%" y2="100%" id="linearGradient-13">
            <stop stop-color="#4F7BBC" offset="0%"></stop>
            <stop stop-color="#38609D" offset="100%"></stop>
        </linearGradient>
        <linearGradient x1="50%" y1="0%" x2="50%" y2="100%" id="linearGradient-14">
            <stop stop-color="#6F95CD" offset="0%"></stop>
            <stop stop-color="#3A6AB0" offset="100%"></stop>
        </linearGradient>
        <linearGradient x1="50%" y1="0%" x2="50%" y2="93.1573777%" id="linearGradient-15">
            <stop stop-color="#8EBBEA" offset="0%"></stop>
            <stop stop-color="#4876BC" offset="100%"></stop>
        </linearGradient>
        <linearGradient x1="50%" y1="0%" x2="50%" y2="93.1573777%" id="linearGradient-16">
            <stop stop-color="#4D749E" offset="0%"></stop>
            <stop stop-color="#2B5086" offset="100%"></stop>
        </linearGradient>
    </defs>
    <g id="11-蓝色卫衣男背影" stroke="none" stroke-width="1" fill="none" fill-rule="evenodd">
        <polygon id="矩形" fill="url(#linearGradient-1)" points="0 0 750 0 750 1125 0 1125"></polygon>
        <circle id="椭圆形" fill="url(#linearGradient-2)" cx="279" cy="127" r="105"></circle>
        <g id="boy" transform="translate(177.000000, 366.000000)">
            <path d="M12.4832747,426.330928 C12.3400246,436.479115 9.96725909,447.509053 80.0008528,518.27624 C81.1311918,519.418419 90.4680403,556.82624 117.435228,625.821553 C138.083531,678.650054 223.872389,728.481543 267.353197,647.194209 C280.659385,622.318301 288.908942,576.917438 291.506719,526.036273 C295.782189,528.197972 303.071584,538.455572 314.014329,542.55749 C328.935814,548.15085 340.25301,556.913088 345.378978,558.005147 C348.720966,558.717138 356.439234,553.725343 359.698118,555.530147 C362.965463,557.339636 368.516478,558.239522 373.712572,556.734834 C378.908665,555.230147 383.004483,553.009346 387.075462,551.046553 C390.750462,549.274678 392.828929,541.020671 394.878978,539.573897 C398.142403,537.270809 391.190289,531.001248 379.158275,525.306318 C405.227806,521.448506 348.802755,514.043727 336.306322,511.003584 C313.018206,505.338031 297.519887,492.283088 291.506719,484.689759 C292.875997,443.985313 281.214301,419.19628 280.420151,417.667877 C278.756924,414.466865 12.6289238,416.012037 12.4832747,426.330928 Z" id="路径-678备份" fill="url(#linearGradient-3)"></path>
            <g>
                <g id="body-b" transform="translate(0.000000, 110.651067)">
                    <path d="M198.296947,327.070486 C180.620384,344.236111 163.965801,377.703822 183.847728,390.743142 C203.729655,403.782462 223.29304,400.099392 247.691478,389.805642 C272.089915,379.511892 278.507103,308.013455 292.454759,262.575173 C306.402415,217.136892 306.489335,171.823251 310.794603,161.320486 C315.099871,150.817721 313.012125,133.64501 307.117259,118.418142 C301.222393,103.191274 287.906241,110.098295 280.965697,112.044006 C274.025152,113.989717 263.774236,127.936208 259.377415,133.992361 C254.980595,140.048514 215.973509,309.904861 198.296947,327.070486 Z" id="路径-671" fill="#EACAAC" opacity="0.900000036"></path>
                    <path d="M109.867259,58.0956957 C84.442347,58.567387 65.6571028,82.1415795 61.4875716,125.243142 C48.3180403,172.931423 45.2242903,231.084548 46.0844466,249.236892 C46.9446028,267.389236 47.027977,264.629815 63.6438216,276.668142 C80.2596662,288.706469 102.878197,304.59158 119.804759,313.377126 C130.534276,318.946165 141.425345,322.409451 151.16179,326.463455 C151.497459,326.603218 151.780271,327.260249 152.010228,328.434548 C166.75435,337.154551 175.386382,340.689707 177.906322,339.040017 C185.448728,334.102347 191.078646,319.920241 190.839134,317.702517 C190.232441,312.08493 168.050474,306.607351 159.756322,306.914236 C150.072303,293.715097 103.682103,248.67908 88.3469466,247.954861 C91.2203841,218.709548 96.0906966,191.892361 88.4242903,151.139236 C171.896947,208.237673 150.727164,104.254065 129.088353,70.5447045 C124.845253,63.9347218 113.124422,58.0367936 109.867259,58.0956957 Z" id="路径-668" fill="#F2CEB3"></path>
                    <path d="M4.52978217,308.574783 C1.75358722,297.154861 10.4458774,281.43914 20.8387435,277.142751 C27.007136,274.592751 37.8784279,277.530509 44.8563216,279.901345 C54.0895247,283.038455 73.6914896,295.629985 87.5723372,304.634939 C119.002025,325.024392 128.696947,333.707986 148.276634,343.934939 C153.614001,345.997439 156.317416,347.502126 159.884056,346.400564 C163.450696,345.299001 164.821032,343.261111 168.238353,346.718142 C169.907894,346.724064 173.426866,345.614474 176.51179,344.233767 C181.976243,341.788064 184.553614,343.954802 186.538353,347.277126 C189.785286,352.712283 185.125072,375.171267 181.24265,375.662283 C177.360228,376.153298 164.52514,372.434589 164.087572,372.322439 C159.64793,371.184548 160.186785,374.961501 151.778197,371.182205 C143.369608,367.402908 113.228197,360.791189 79.3797591,352.476736 C66.3516419,349.276539 39.8978686,341.279168 27.9004622,334.79783 C10.4259466,325.357602 6.11323613,315.088346 4.52978217,308.574783 Z" id="路径-674" fill="url(#linearGradient-4)"></path>
                    <path d="M216.250072,399.553298 C243.82429,398.573611 250.59304,396.309548 261.395384,381.970486 C272.197728,367.631423 277.208665,354.314236 285.667259,323.740017 C294.125853,293.165798 309.823118,192.813398 312.838353,177.044705 C315.853587,161.276011 321.303978,134.965012 309.681322,118.34783 C298.058665,101.730647 289.267259,108.534357 278.877415,113.261797 C268.487572,117.989236 251.883047,134.976736 247.013434,153.839236 C242.143822,172.701736 202.079759,282.330642 198.268822,298.474392 C194.457884,314.618142 183.943822,332.484548 179.464915,355.504861 C174.986009,378.525173 188.675853,400.532986 216.250072,399.553298 Z" id="路径-677" fill="url(#linearGradient-5)"></path>
                    <path d="M162.938743,380.682579 C173.957764,364.337604 174.794297,333.024735 154.91765,317.422439 C135.041002,301.820143 90.4492903,287.648611 59.7953841,278.771658 C48.1503089,275.399403 37.7502545,271.246568 30.4281966,271.500173 C20.7926896,271.833907 15.2802304,274.098443 11.2844466,283.339626 C-13.2217484,305.604478 8.56335284,324.941189 17.0594466,334.555251 C25.5555403,344.169314 79.5840579,389.664405 113.544693,394.366562 C147.505327,399.068719 151.919722,397.027553 162.938743,380.682579 Z" id="路径-673" fill="url(#linearGradient-6)"></path>
                    <path d="M151.19929,48.7478295 C141.587572,55.1392358 123.56765,54.5872826 100.526243,59.8513451 C77.4848372,65.1154076 83.4625716,100.303298 84.4586653,124.840017 C85.4547591,149.376736 89.2563216,179.859548 93.1797591,213.269705 C94.942203,228.277852 100.881322,263.861892 94.1052054,302.874014 C93.9692115,303.656972 93.8974481,304.87715 93.8899153,306.534548 C105.885228,321.869705 133.976634,330.04197 178.164134,331.051345 C222.351634,332.06072 246.625072,327.021267 250.984447,315.932986 C247.134447,285.532986 246.145384,260.324392 248.017259,240.307205 C250.825072,210.281423 255.709447,180.754861 261.390697,148.886892 C267.071947,117.018923 294.861334,93.5400534 257.481093,75.9181602 C220.100853,58.296267 214.147728,57.5439233 210.828978,51.7595483 C208.616478,47.9032983 208.032884,33.9876733 209.078197,10.0126733 C206.706322,4.44392326 199.275072,1.17751701 186.784447,0.213454508 C174.293822,-0.750607992 166.603197,1.55095451 163.712572,7.11814201 C161.778197,30.6103295 157.607103,44.486892 151.19929,48.7478295 Z" id="路径-667" fill="#E8BCA2"></path>
                    <path d="M95.5656966,287.974392 C94.2110391,296.21324 96.1104371,300.818187 86.2656966,314.512673 C76.420956,328.207159 71.3289778,353.499783 78.6824935,369.886111 C86.0360091,386.272439 107.278342,395.506352 133.915306,396.645876 C160.55227,397.7854 164.360534,390.859647 175.169993,394.913845 C185.979453,398.968044 228.357884,406.251736 249.634447,391.357205 C270.911009,376.462673 268.581322,334.694705 259.053978,317.793923 C252.702415,306.526736 249.456712,297.383767 249.316868,290.365017 C187.870297,300.357493 136.619906,299.560618 95.5656966,287.974392 Z" id="路径-670" fill="#132F3E"></path>
                    <path d="M163.664525,316.030251 C159.521272,310.807205 199.625555,311.56072 193.643431,318.293142 C187.661307,325.025564 186.011009,329.567751 183.204368,337.00447 C180.397728,344.441189 176.617259,377.577126 184.059837,387.300173 C189.71752,394.691417 196.998431,398.454268 207.199831,400.194859 C193.86303,399.641961 181.792108,397.170407 176.085054,395.239164 L175.169993,394.913845 C164.360534,390.859647 160.55227,397.7854 133.915306,396.645876 C132.931136,396.603774 131.954329,396.550621 130.985316,396.486467 C143.731654,396.582905 157.866538,394.145693 165.609837,386.689626 C176.300501,376.395525 176.813543,361.689291 176.488166,347.440548 L176.41804,344.718923 C175.998509,329.643923 167.807777,321.253298 163.664525,316.030251 Z" id="路径" fill="#0E222D"></path>
                </g>
                <g id="head-b" transform="translate(122.087270, 0.000000)">
                    <path d="M61.5799887,145.980928 C70.7545981,145.764131 91.2300486,131.164567 95.4260824,126.087178 C101.959286,118.181709 105.615536,114.012178 107.86202,102.810225 C109.319832,103.027022 111.415145,105.510225 114.351864,100.448897 C117.288582,95.3875684 120.021395,81.3742872 118.997176,76.9000684 C117.972957,72.4258497 116.2275,71.1232447 114.187801,73.8555372 C115.49148,60.2270444 115.635334,44.2633535 104.208114,29.3676466 C96.2302599,18.9682867 84.3504691,13.0375515 73.6629879,12.2913018 C59.7280404,11.3182989 47.2734645,15.932593 37.2307699,26.9758497 C27.532129,37.6407744 23.5098532,53.7114909 23.2445275,68.4403085 C15.1995199,60.9707716 14.3381918,75.9660841 15.6588949,84.6695997 C16.7189273,91.655279 18.4655356,100.664522 24.7772543,97.3047559 C26.3874106,117.839522 28.6548809,118.997224 31.2858481,123.299287 C38.3909262,134.917256 52.4053793,146.197725 61.5799887,145.980928 Z" id="路径-708" fill="#F9ECD1"></path>
                    <path d="M70.0574644,8.17077155 C84.1762783,1.34108405 96.4599951,3.3793653 106.908615,14.2856153 C122.581544,30.6449903 118.982305,42.6930372 127.974929,42.2336622 C122.567759,43.3742872 118.850937,42.1309443 116.824464,38.5036336 C119.731589,43.6996943 121.748736,49.1727247 122.875906,54.9227247 C124.56666,63.5477247 122.875906,69.8399283 123.801563,74.7801466 C124.727221,79.7203648 126.383917,86.7789747 129.6,87.7844434 C127.433239,88.2945997 124.863049,87.3371778 121.88943,84.9121778 C121.220426,93.9410841 118.722407,101.426631 114.395373,107.368818 C110.068339,113.311006 109.654368,119.170381 113.153459,124.946943 C110.200112,124.105147 107.989157,121.940107 106.520593,118.451826 C101.932444,126.463936 98.9584194,131.840498 98.7644083,142.342842 C97.1515015,139.498311 96.0336573,137.37585 95.4108758,135.975459 C93.5737514,144.805147 94.353242,152.422725 97.7493474,158.828193 C95.2047011,156.757881 92.5905189,153.740693 89.9068008,149.776631 C88.4560767,156.119209 89.6679868,162.23542 93.5425312,168.125264 C89.4096443,166.897521 86.0794921,164.575654 84.4927373,154.246748 C82.9351753,159.711201 83.9362479,164.319014 84.958607,169.724873 C80.600961,165.833662 76.2709225,157.681657 75.8121117,156.107686 C74.3221529,163.728889 74.3868233,168.446467 76.0061227,170.26042 C72.1210364,167.931123 69.4135992,162.966084 67.883811,155.365303 C66.9690703,161.789076 65.3642726,166.926186 63.0694179,170.776631 C62.9879362,166.145005 61.9278696,160.542466 59.8892181,153.969014 C58.7324501,162.091279 56.0600849,167.540693 51.8721224,170.317256 C53.1286328,163.052412 52.9591519,157.508857 51.3636797,153.686592 C48.9764111,163.081306 45.1568895,166.09039 39.9731064,169.250072 C42.4604128,165.045925 43.3878534,159.591301 42.7554281,152.886201 C40.6889326,159.818948 36.3983896,164.384182 29.8837991,166.581904 C34.0494614,160.988936 35.4913811,154.823345 34.2095581,148.085133 C32.4270642,151.155636 29.8704133,153.692143 26.5396053,155.694654 C29.3008793,146.526255 32.3440782,137.836156 30.6195609,131.158659 C29.6976471,133.793687 28.1713526,136.04499 26.0406776,137.912568 C26.3070626,131.448115 24.4378058,123.724385 20.432907,114.741377 C19.489612,116.353584 18.4693815,117.110029 18.0193302,120.094844 C15.5689469,112.73835 13.9013034,111.025068 13.8854906,100.383272 C12.9294464,97.6277225 10.318684,97.4546574 5.70898218,100.429248 C7.92004756,94.0091258 9.23077166,88.2943186 8.93406829,79.6914418 C6.8287248,82.7434278 3.85070204,83.1015616 0,80.7658431 C4.0810924,76.8311176 6.72944474,69.5162082 7.94505704,58.8211147 C9.16066933,48.1260213 12.2375932,40.2660621 17.1758287,35.2412374 C13.5396019,38.0203077 9.69268917,39.4776676 5.63509053,39.6133168 C8.97044571,36.6542939 12.7005983,31.797951 19.8055641,21.1985059 C26.91053,10.5990608 42.2194124,3.68494357 56.3895563,7.15895058 C53.1928901,4.26248446 49.7806118,2.41595993 46.1527215,1.61937698 C54.8378318,1.49087231 60.4410921,3.33739684 62.9625024,7.15895058 C71.0496587,-2.93779299 80.2701542,0.535119995 81.7139283,0.741018338 C74.6263933,2.66274731 70.7409053,5.13933171 70.0574644,8.17077155 Z" id="路径-711" fill="url(#radialGradient-7)"></path>
                </g>
                <g id="hand-b" transform="translate(197.216776, 185.089602)">
                    <path d="M182.902729,331.063201 C183.334858,330.801287 186.202439,332.24035 187.056149,332.821014 C187.909858,333.401678 190.573823,334.880291 189.215327,337.509393 C187.856831,340.138494 182.438374,338.352557 181.431733,337.618963 C180.425093,336.885369 182.470601,331.325115 182.902729,331.063201 Z" id="路径-714" fill="#FEE6CD"></path>
                    <path d="M50.4114208,1.07257617 C64.6197297,4.41782939 91.3614208,4.96320117 93.4778271,62.4507012 C100.127046,97.4991387 111.595015,149.345232 109.005171,188.082732 C120.693866,197.935781 129.910675,266.928478 133.756626,301.922748 C134.732789,310.804842 136.050288,317.032928 137.868452,320.500506 C140.666304,320.64992 142.318061,322.863006 146.018843,323.16535 C146.936285,323.240302 162.15937,323.025311 165.722456,323.773553 C169.285542,324.521795 172.826655,327.064764 177.230561,328.227264 C179.154696,328.735178 182.193419,330.271675 184.411811,331.759295 C188.866401,333.968865 189.550398,335.319841 188.821577,336.848748 C187.527241,339.563982 182.760054,339.375311 177.538179,337.949139 C174.568354,337.528143 163.437593,332.410271 171.696089,337.323943 C174.461421,338.934979 178.741694,341.110271 183.339253,343.159002 C185.960737,343.919256 188.653413,345.859295 193.141694,348.527654 C197.629976,351.196014 196.545405,354.482244 192.247847,354.048943 C187.950288,353.615643 187.904292,353.434588 180.314058,350.339373 C174.872163,348.416326 171.039647,345.764255 170.172651,345.933709 C172.836514,347.430764 176.906538,349.911346 179.836518,352.857439 C185.190772,356.81471 188.097065,357.61115 189.494526,360.452654 C190.891987,363.294158 187.949409,364.076385 184.953218,363.301775 C181.957026,362.527166 179.575776,361.371111 174.850483,358.781561 C171.510505,356.688419 159.896035,349.95069 159.258101,349.321014 C162.69521,352.349139 163.267964,353.487615 166.450483,356.4841 C169.633003,359.480584 171.959049,361.613128 173.406147,362.87492 C179.087584,367.828827 172.063765,370.010467 165.942476,366.588592 C162.889757,364.642402 157.346772,359.704119 153.543745,356.565252 C149.740718,353.426385 143.978315,350.876971 142.714155,351.488689 C142.349116,352.488006 143.401167,355.467498 148.386616,359.765643 C155.051948,366.360076 154.676655,368.536248 152.949311,370.072576 C151.937924,370.972121 148.867378,369.071502 143.688276,365.041717 C140.346362,362.991604 137.184906,360.009332 134.171479,357.262811 C120.432417,352.162811 114.274098,348.330067 112.224311,342.136248 C110.174525,335.942429 109.511421,335.140154 108.92314,326.401482 C108.334858,317.662811 89.2661083,275.005389 79.6918896,245.005389 C70.1176708,215.005389 72.9321588,196.407075 73.0637646,191.87492 C68.5918896,174.423357 57.1426708,140.059295 57.8387646,83.1788262 C-26.6114973,124.875517 -1.61715275,43.397422 27.0700146,9.12335742 C37.3164481,-3.11859459 46.6721188,0.192182009 50.4114208,1.07257617 Z" id="路径-669" fill="url(#linearGradient-8)"></path>
                    <path d="M165.722456,323.773553 C169.011458,324.464238 172.281739,326.684157 176.229189,327.935934 L177.230561,328.227264 C179.032753,328.702989 181.812735,330.081054 183.980645,331.476145 C181.091581,330.101574 178.290385,329.075183 175.886714,328.451092 C172.074824,327.46137 169.07519,325.236639 166.601655,324.539373 C164.151981,323.848833 149.343715,323.868094 144.846557,323.158491 L151.673806,323.185379 C157.193625,323.227838 163.72556,323.354208 165.722456,323.773553 Z" id="路径" fill="#FFE7C0"></path>
                    <path d="M140.789424,321.36535 C139.193028,320.857001 137.103902,320.553739 134.368501,320.839764 C130.37625,321.25721 122.745991,323.92868 120.982026,325.620281 C119.218061,327.311883 115.420893,327.890936 115.223726,327.241717 C115.026558,326.592498 117.454683,327.389959 119.027339,324.670351 C120.549264,322.038472 132.340193,318.746977 134.712619,318.946828 L134.920893,318.979192 C135.630225,319.15751 136.771235,319.164171 137.036714,318.612029 L137.888301,320.485418 C139.112617,320.625408 140.079658,320.918719 140.789424,321.36535 Z" id="路径" fill="#E5AAAA"></path>
                    <path d="M142.923335,354.674139 C141.316401,354.620525 140.053413,354.480779 139.062593,357.208611 C138.926069,355.29201 139.852436,354.841424 140.306245,354.476092 C140.760054,354.11076 142.308979,354.155291 142.923335,354.674139 Z M127.26064,339.692889 C130.703022,341.833318 133.642573,343.223553 136.079292,343.863592 C139.73437,344.82365 139.928022,347.821893 141.009663,348.926386 C140.021479,347.950213 139.550679,347.320037 138.24521,345.916717 C137.807351,345.446038 137.158431,345.075649 136.452588,344.765767 C135.072124,345.014353 133.258853,345.267188 132.074439,348.55254 C131.937915,346.635938 132.836744,345.889454 133.782447,345.154102 C134.294703,344.755787 135.132653,344.554229 135.810764,344.50501 C134.590674,344.037547 133.335206,343.708229 132.785444,343.326873 C132.137007,342.877068 130.295405,341.66574 127.26064,339.692889 Z M140.307124,337.573553 C146.891648,340.321893 149.886375,340.30407 150.96157,341.214861 C151.678367,341.822055 152.492119,343.195004 153.402827,345.333709 C152.101299,343.170818 150.900145,341.911443 149.799363,341.555584 C148.148191,341.021795 141.866063,339.157635 140.307124,337.573553 Z M146.61464,333.153222 L146.862726,333.233551 C149.465054,334.035185 154.562021,334.69413 157.504976,335.880779 C160.674311,337.158709 161.057808,340.231658 162.232612,341.195525 C163.407417,342.159393 160.985444,340.555682 160.012788,338.823943 C159.040132,337.092205 156.240815,335.864666 153.641304,335.286053 C151.041792,334.707439 149.589546,334.207635 146.308589,333.045721 L146.61464,333.153222 Z M148.383979,327.859222 C150.51562,328.125457 159.341792,328.772771 162.711323,329.78908 C164.634956,329.933221 165.75439,332.688885 166.473628,333.800994 C164.918257,332.387713 163.938276,330.583904 161.819819,330.287127 C159.701362,329.99035 156.380561,329.399139 148.383979,327.859222 Z" id="形状结合" fill="#DBA7A7"></path>
                    <path d="M109.03564,308.863201 C112.78366,318.564972 117.819106,317.563845 115.997663,321.899739 L115.367332,323.283107 C113.581544,327.255183 113.115147,329.481123 114.525874,335.248553 C116.012806,341.32753 117.999462,343.977306 125.272353,347.742902 L125.969819,348.099334 C133.553999,351.927107 135.503862,353.748745 138.142394,356.744663 L138.418061,357.058904 C141.204487,360.245818 149.883101,368.809002 152.23769,368.758611 C154.59228,368.708221 153.787349,366.624407 153.256505,365.59438 C154.568688,367.927656 154.017546,369.122471 152.949311,370.072576 C151.937924,370.972121 148.867378,369.071502 143.688276,365.041717 C140.346362,362.991604 137.184906,360.009332 134.171479,357.262811 L132.303251,356.559042 C119.868438,351.801168 114.178759,348.041982 112.224311,342.136248 L110.816975,337.961422 C109.814368,334.895836 109.349136,332.729486 108.92314,326.401482 C108.348223,317.861344 90.1230137,276.926146 80.3588121,247.069148 L80.9539221,248.498644 C87.2877707,263.472895 104.829252,298.329147 108.846178,308.381462 L109.03564,308.863201 Z M142.979292,348.096404 C146.044087,349.444622 151.92732,352.622201 153.345178,354.134469 L153.504194,354.32199 C154.564155,355.74201 161.60478,361.808807 163.145503,362.899529 C164.172041,363.626245 166.777298,366.495334 169.466983,367.960003 C168.323308,367.6949 167.116298,367.244773 165.942476,366.588592 C162.889757,364.642402 157.346772,359.704119 153.543745,356.565252 C149.740718,353.426385 143.978315,350.876971 142.714155,351.488689 C142.711811,351.61408 142.60312,352.186541 143.093257,353.397381 C142.260054,351.898406 141.90395,351.245672 140.883686,349.201775 C140.529249,348.168656 140.086416,347.488755 139.244233,346.550701 C140.275585,346.927157 141.444682,347.408635 142.751523,347.995135 L142.979292,348.096404 Z M155.107115,345.321021 L157.197203,346.417484 C161.826537,348.813066 166.157842,350.756588 168.405776,352.354133 L168.760835,352.617205 C171.106929,354.436541 175.487397,356.615057 177.994038,358.422967 L178.647193,358.884284 C181.339837,360.745966 186.103823,363.544811 189.460835,362.5966 L189.664947,362.526828 C189.049812,363.630798 187.014199,363.834604 184.953218,363.301775 C181.957026,362.527166 179.575776,361.371111 174.850483,358.781561 L172.9135,357.598296 C169.196238,355.359203 162.488246,351.463412 159.960054,349.866375 L155.723072,346.492573 C154.068083,345.177103 153.190997,344.349751 155.107115,345.321021 Z M166.637104,342.128338 L168.761507,342.975801 C172.661192,344.569991 178.977679,347.292375 180.291753,348.00152 L181.442884,348.671313 C184.078469,350.16218 190.734031,353.614114 194.807515,353.11701 C195.272379,353.06028 195.616964,352.957534 195.860041,352.81811 C195.419353,353.705249 194.147492,354.240475 192.247847,354.048943 L191.108928,353.927364 C187.870732,353.553308 187.169753,353.135051 180.314058,350.339373 C175.30616,348.569691 171.50493,346.204681 170.279731,345.967254 L165.476825,343.316764 C163.865293,342.474553 162.608163,341.824749 162.052729,341.522479 C160.173921,340.500018 163.487104,340.923943 166.637104,342.128338 Z M164.930268,326.571111 C164.794038,329.025018 164.767176,330.808861 165.372358,331.656902 C165.208508,330.591511 165.214595,329.867303 165.743257,327.931219 C165.997114,331.985027 167.961659,333.035202 168.536421,333.393768 L168.910274,333.605422 C169.879041,334.117098 172.062046,334.907124 174.331929,335.744549 C174.10644,333.386639 174.691352,331.578777 176.086665,330.320965 C174.696235,333.501873 174.944233,335.119793 175.280854,335.915057 C178.289088,337.227699 182.751558,337.753436 185.540913,336.367693 C186.819071,335.732709 187.149771,334.462026 187.13945,333.311673 C189.124915,334.676127 189.362802,335.713377 188.821577,336.848748 C187.527241,339.563982 182.760054,339.375311 177.538179,337.949139 C175.043697,337.595526 166.791646,333.928252 169.107784,335.675117 C168.354769,335.355352 167.740693,335.061735 167.362202,334.818475 C166.42104,333.786199 165.029145,332.001434 164.017231,331.064812 C163.61672,330.076 164.844839,327.05673 164.930268,326.571111 Z" id="形状" fill="#C79999"></path>
                    <path d="M152.058101,365.059148 C150.957124,365.497283 149.284712,366.553289 150.232173,367.72282 C151.179634,368.892352 152.959126,370.111395 154.035054,369.168035 C155.110981,368.224676 153.159077,364.621014 152.058101,365.059148 Z" id="路径-675" fill="#DDAFAF"></path>
                    <path d="M172.298726,362.414666 C171.648086,362.227752 168.590913,364.046503 168.454097,365.022381 C168.31728,365.99826 170.325201,367.448455 171.842237,368.388885 C173.359272,369.329314 176.411128,368.121697 175.642378,365.997088 C174.873628,363.872479 172.949365,362.60158 172.298726,362.414666 Z" id="路径-676" fill="#DDAFAF"></path>
                    <path d="M186.761714,357.980877 C185.477632,357.82326 183.426265,360.72365 183.909077,361.332732 C184.39189,361.941814 188.082124,364.116814 189.805952,362.53449 C191.52978,360.952166 188.045796,358.138494 186.761714,357.980877 Z" id="路径-709" fill="#DDAFAF"></path>
                    <path d="M192.651851,348.511248 C193.341792,348.733903 197.395681,350.773011 195.9123,352.669354 C194.428919,354.565696 190.714155,352.173357 190.429683,351.689666 C190.14521,351.205975 191.961909,348.288593 192.651851,348.511248 Z" id="路径-713" fill="#DDAFAF"></path>
                </g>
                <g id="tx-boy" transform="translate(38.999174, 136.242804)">
                    <path d="M118.416661,11.8423296 C113.860663,15.0150771 108.447773,24.0396865 89.2231633,28.216249 C69.9985539,32.3928115 51.4219914,31.478749 38.6438664,45.869374 C25.8657414,60.259999 23.6930852,74.4364557 16.8751164,101.020155 C10.0571477,127.603855 11.5735539,151.721633 7.2235539,157.518593 C2.8735539,163.315553 1.9688664,164.001405 4.3126164,181.077968 C6.6563664,198.15453 6.82277265,202.717812 1.71808515,204.489687 C-3.38660235,206.261562 4.60558515,216.070155 3.62589765,228.177968 C2.64621015,240.28578 6.63996015,245.005663 14.9602727,249.351405 C23.2805852,253.697148 49.9524602,268.734218 59.2852727,277.909999 C68.6180852,287.08578 91.2540227,301.353358 102.600116,304.349843 C110.164179,306.347499 114.562616,306.715468 115.795429,305.453749 L118.416661,308.439674 C126.342639,291.560776 129.419487,282.47914 127.647208,281.194765 C125.677272,281.083046 123.784101,281.083046 121.967695,281.194765 C125.126288,272.72289 121.304413,264.99789 110.50207,258.019765 C94.2985539,247.552577 89.901115,248.34828 79.3996391,236.259218 C68.8981633,224.170155 60.1170259,220.558437 50.9227727,220.999062 C55.6641789,213.913905 58.4204126,165.837733 57.4981633,153.399452 C56.5759139,140.961171 53.0157414,103.843202 57.5966008,85.881874 C62.1774602,67.9205459 75.0469914,50.3963271 82.6184758,44.3576553 C90.1899602,38.3189834 124.070038,14.1971084 118.416661,11.8423296 Z" id="路径-715" fill="url(#linearGradient-9)"></path>
                    <path d="M52.7567472,220.966279 C61.0921867,221.075024 69.2027578,224.792601 78.702066,235.465791 L79.292812,236.135899 C76.7951494,245.066981 73.5757422,251.11059 70.0647391,252.148763 C61.2788082,254.746684 57.6595393,247.732433 47.4823366,238.013839 L44.287795,234.998639 C35.6668043,226.812828 33.6508551,223.936463 46.3372434,224.121593 C49.8368409,224.172662 51.5648876,223.059155 52.0911778,220.967256 L52.7567472,220.966279 Z M46.8891789,81.156874 C49.5647955,74.8922714 53.4971319,77.4266735 57.8177833,85.0429469 L57.5966008,85.881874 C53.0157414,103.843202 56.5759139,140.961171 57.4981633,153.399452 C58.3350611,164.686607 56.1428357,205.320523 52.1868317,218.039411 C51.3279756,210.76462 44.0480745,197.541361 39.9552599,181.508009 C33.7184304,157.075608 48.5489206,160.304579 46.0447747,150.035857 L45.6749036,148.649508 C42.6189823,136.862329 37.5926114,102.923558 46.8891789,81.156874 Z" id="形状" fill="url(#linearGradient-10)"></path>
                    <path d="M12.0673177,247.705033 L12.4138448,247.751965 L12.763007,247.779921 C24.8276945,248.439322 32.7011859,257.502787 40.1572758,261.938028 L41.6409408,262.788303 C45.756832,265.182961 49.4883329,268.092481 47.6327457,268.83494 L45.8635834,267.641331 C36.0059113,261.062801 24.1927272,254.325609 17.5819706,250.748293 L14.9602727,249.351405 C13.9290874,248.812812 12.9643587,248.268472 12.0673177,247.705033 Z M2.43784771,217.070619 C3.52092243,218.889759 4.43554182,220.577987 4.98410078,221.976405 C7.98175703,229.618202 31.4735433,237.546598 37.6231633,246.394765 L39.6854011,249.374347 C41.517626,252.127997 35.7395695,244.795937 28.559882,242.01664 L22.8484582,239.849504 C16.3711851,237.354051 8.82682695,234.082015 3.5718908,228.910815 L3.62589765,228.177968 C3.95175195,224.150783 3.28505034,220.37796 2.43784771,217.070619 Z M3.52257078,174.835662 C5.5131109,183.778436 9.62820835,195.995076 14.8665227,203.014296 C21.9809758,212.547499 40.2622258,220.234626 28.559882,216.893797 C20.5774096,214.614931 11.0441935,207.959652 3.60563543,203.519574 C6.5301134,201.293395 6.35648498,196.375313 4.67670778,183.765995 L4.04812759,179.114845 C3.84061485,177.541606 3.66536453,176.12228 3.52257078,174.835662 Z M10.4638308,143.451432 L11.1558936,146.104622 C11.7357577,148.376134 12.3234647,150.798667 12.9188664,153.370155 C17.1446477,171.620937 39.9809758,199.574843 39.9552599,206.317812 C39.9294133,213.06078 25.8856633,189.504417 19.409882,182.308771 L18.1375657,180.914508 C14.3702558,176.85826 14.1182599,177.387527 15.3359175,181.134655 L16.9676945,185.903749 C19.7966008,194.146384 11.3801945,181.423408 10.0032414,173.172954 L9.85144272,172.202768 C8.92945309,165.826004 11.4458888,171.428602 9.11608476,162.585967 L8.75871015,161.255702 C8.38422979,159.884985 8.0360881,158.379491 7.71428506,156.739221 C9.07420556,154.223778 9.79101407,149.573071 10.4638308,143.451432 Z M24.2878941,72.6648593 C23.7864268,89.7647709 26.3891593,113.571867 35.5134683,132.042131 L37.2640016,135.480533 C47.9089691,156.677824 29.842757,133.084999 21.7993352,109.668593 C20.3680222,105.501684 19.1016827,101.140248 18.0003166,96.5842844 L20.8595413,85.1548959 C22.0125623,80.6082638 23.1087724,76.4836576 24.2878941,72.6648593 Z" id="形状结合" fill="url(#linearGradient-11)"></path>
                    <path d="M92.3141345,34.5338271 C86.2219914,35.8392959 65.7610539,42.3900771 55.822382,60.541249 C45.8837102,78.6924209 44.272968,92.2211318 43.531757,105.857655 C43.5487492,120.068397 48.5350773,131.888515 50.3180852,144.026796 C52.101093,156.165077 98.4062777,33.2283584 92.3141345,34.5338271 Z" id="路径-696" fill="#2D4E81"></path>
                    <path d="M172.82121,26.1924209 C180.22746,32.481874 202.622296,46.675624 221.901831,52.5607803 C241.181366,58.4459365 247.675978,70.3942748 253.263398,96.6197646 C258.850817,122.845254 268.205976,156.924452 267.990351,170.969374 C267.774726,185.014296 277.582148,213.536562 273.937616,226.518593 C270.293085,239.500624 283.687616,262.150097 283.643085,276.078358 C283.598554,290.00662 310.269257,344.969374 293.225507,351.981874 C293.547382,355.46078 293.989179,358.427577 294.550898,360.882265 C283.039179,361.546695 274.47082,364.133414 268.84582,368.642421 C266.680976,370.538928 264.76457,368.510803 263.096601,362.558046 C256.12335,361.867421 251.714366,358.155312 249.869648,351.421718 C247.102571,341.321327 246.02707,347.156093 236.275898,318.718202 C226.524726,290.280312 223.770172,245.934018 223.504804,235.966249 C214.875116,217.65453 218.951678,216.597031 216.054023,192.006874 C212.395429,160.959218 207.649335,144.327177 210.607148,135.424062 C213.56496,126.520946 226.849335,74.1736709 206.225507,57.5904678 C185.601679,41.0072646 165.41496,19.9029678 172.82121,26.1924209 Z" id="路径-716" fill="url(#linearGradient-12)"></path>
                    <path d="M212.245819,60.445755 C220.038398,68.7408584 227.957842,90.41973 223.047143,120.647482 L221.665922,129.268753 C218.094003,152.011454 217.742576,159.13957 222.653766,154.782815 L223.047143,154.420155 C228.973945,148.762343 221.382538,168.784839 220.661835,187.621718 C220.204737,199.568804 220.692161,216.969339 219.853466,227.195063 C216.162077,216.423843 218.406567,211.971101 216.054023,192.006874 L215.713474,189.181685 C212.167843,160.407131 207.878891,144.561036 210.476071,135.840487 L210.997983,134.187952 C214.423984,122.905259 225.237929,76.9579615 208.220721,59.4105381 C209.788094,59.0004421 211.170443,59.3010307 212.245819,60.445755 Z" id="路径" fill="#3B619A"></path>
                    <path d="M298.635347,334.869515 C298.72719,335.727119 298.797894,336.564895 298.845417,337.380263 C298.852646,337.487488 298.85845,337.59373 298.863854,337.699583 L298.845417,337.380263 C298.860749,337.64333 298.873669,337.904066 298.884106,338.162381 L298.863854,337.699583 C298.876714,337.951511 298.887303,338.201237 298.895561,338.448682 L298.884106,338.162381 C298.89496,338.430983 298.90313,338.696968 298.908539,338.96024 L298.895561,338.448682 C298.904169,338.706645 298.910243,338.962129 298.913712,339.215047 L298.908539,338.96024 C298.914292,339.24018 298.916923,339.517052 298.91634,339.790739 L298.913712,339.215047 C298.917035,339.457336 298.917968,339.697271 298.91645,339.934772 L298.91634,339.790739 C298.915849,340.02168 298.913069,340.250353 298.907946,340.476688 L298.91645,339.934772 C298.914767,340.197915 298.910075,340.458072 298.90229,340.715136 L298.907946,340.476688 C298.902438,340.720024 298.89422,340.960659 298.883224,341.198503 L298.90229,340.715136 C298.895107,340.952308 298.885291,341.186847 298.872777,341.418671 L298.883224,341.198503 C298.873411,341.410748 298.861386,341.620771 298.847099,341.828511 L298.872777,341.418671 C298.86015,341.652588 298.844775,341.883741 298.826586,342.112044 L298.847099,341.828511 C298.827044,342.120123 298.802533,342.407236 298.773428,342.689676 L298.826586,342.112044 C298.810675,342.311753 298.792609,342.509282 298.772345,342.704573 L298.771883,342.704624 C298.746722,342.951509 298.717584,343.194868 298.684838,343.434534 L298.684437,343.434562 C298.624899,343.873225 298.552876,344.299544 298.468208,344.712785 L298.481738,344.644586 C298.440278,344.8511 298.395689,345.054379 298.347902,345.254337 L298.468208,344.712785 C298.425914,344.919209 298.380466,345.12237 298.331792,345.322179 L298.347902,345.254337 C298.301788,345.447298 298.252695,345.637167 298.200562,345.823864 L298.331792,345.322179 C298.282704,345.523693 298.230336,345.721798 298.174616,345.916403 L298.174408,345.916368 C298.062901,346.306578 297.937714,346.682686 297.798479,347.044002 L297.798752,347.0429 C297.660594,347.401812 297.508933,347.745115 297.342934,348.073203 L297.383094,347.99276 C297.298535,348.163562 297.210161,348.330316 297.117893,348.492926 L297.342934,348.073203 C297.261676,348.233807 297.176982,348.390764 297.088788,348.543993 L297.088371,348.544582 C296.908739,348.856809 296.7141,349.154084 296.504311,349.435114 L296.504059,349.435391 C296.294176,349.716606 296.068843,349.981799 295.827748,350.229984 L295.858953,350.197652 C295.740576,350.320934 295.618362,350.440075 295.492243,350.554991 L295.827748,350.229984 C295.706315,350.354988 295.580884,350.475678 295.451382,350.591962 L295.451773,350.5916 C295.203912,350.814176 294.941579,351.020302 294.663883,351.209708 L294.635033,351.229286 L294.635033,351.229286 L294.196238,351.504296 C293.889771,351.682194 293.566382,351.841624 293.225507,351.981874 C293.272897,352.494076 293.322886,352.995176 293.375475,353.485176 C293.410238,353.809101 293.44621,354.128796 293.483323,354.443621 C293.500663,354.590721 293.518295,354.737109 293.536177,354.882429 L293.547201,354.971618 L293.547201,354.971618 C284.296707,360.553154 272.276708,362.373135 268.048359,363.929726 C266.036111,364.670498 264.952018,365.19193 264.032941,365.422826 L264.018423,365.383232 C263.929053,365.152096 263.840326,364.910808 263.752241,364.659367 C263.664611,364.409743 263.57775,364.14976 263.491496,363.879741 C263.472702,363.820737 263.453527,363.760149 263.434383,363.699065 C263.403541,363.600758 263.372529,363.500214 263.341599,363.398359 C263.298692,363.257033 263.256049,363.113594 263.213565,362.967643 L263.096601,362.558046 L263.096601,362.558046 L262.719794,362.517496 C262.570906,362.50018 262.42322,362.481449 262.276734,362.461303 L262.478771,362.488094 C262.348096,362.471404 262.218362,362.453605 262.089569,362.434697 L262.276734,362.461303 C262.140354,362.442547 262.005015,362.422564 261.870717,362.401355 L262.089569,362.434697 C261.949096,362.414073 261.809743,362.39213 261.67151,362.368868 L261.870717,362.401355 C261.735576,362.380013 261.601488,362.357429 261.468455,362.333603 L261.67151,362.368868 C261.547766,362.348043 261.42492,362.326162 261.302971,362.303223 L261.468455,362.333603 C261.301198,362.303648 261.135607,362.27173 260.971681,362.237849 L260.97205,362.237925 C260.816071,362.205686 260.661962,362.171755 260.509355,362.136054 L260.872228,362.217009 C260.725053,362.185747 260.579233,362.152889 260.434767,362.118436 L260.509355,362.136054 C260.389331,362.107976 260.270236,362.078804 260.152069,362.048538 L260.434767,362.118436 C260.282185,362.082048 260.131114,362.04388 259.981553,362.003932 L260.152069,362.048538 C260.019801,362.01466 259.888697,361.979411 259.758756,361.942792 L259.981553,362.003932 C259.869549,361.974016 259.758392,361.943101 259.648082,361.911189 L259.758756,361.942792 C259.619753,361.903618 259.482082,361.862876 259.345742,361.820565 L259.648082,361.911189 C259.520873,361.874387 259.394791,361.836259 259.269836,361.796803 L259.345742,361.820565 C259.225778,361.783335 259.106844,361.744892 258.988941,361.705233 L258.989034,361.705265 C258.837364,361.654248 258.68749,361.601256 258.539321,361.546256 L258.861342,361.6617 C258.727726,361.615468 258.595451,361.567656 258.464516,361.518264 L258.539321,361.546256 C258.431215,361.506127 258.324016,361.46493 258.217724,361.422665 L258.464516,361.518264 C258.334937,361.469383 258.206671,361.418955 258.079718,361.36698 L258.217724,361.422665 C258.101639,361.376505 257.986637,361.329072 257.872716,361.280363 L258.079718,361.36698 C257.956739,361.316632 257.834993,361.264832 257.714479,361.21158 L257.714605,361.211635 C257.524854,361.12779 257.33828,361.040405 257.154757,360.949426 C257.110223,360.927349 257.065946,360.905099 257.021848,360.882638 C256.78441,360.761701 256.552229,360.634689 256.325235,360.501565 L256.450218,360.573945 C256.342312,360.51224 256.23556,360.449177 256.12996,360.384755 L256.325235,360.501565 C256.229473,360.445404 256.134634,360.388155 256.040718,360.329819 L256.12996,360.384755 C256.029242,360.323311 255.929572,360.260632 255.830951,360.196717 L256.040718,360.329819 C255.933652,360.263314 255.827786,360.195396 255.723119,360.126064 L255.723364,360.126226 C255.495646,359.975385 255.27384,359.818029 255.057699,359.653996 L255.168976,359.737485 C255.06983,359.663946 254.971855,359.589027 254.875051,359.512729 L255.057699,359.653996 C254.96338,359.582415 254.87014,359.509563 254.777978,359.435439 L254.875051,359.512729 C254.78575,359.442343 254.697445,359.370783 254.610137,359.298048 L254.777978,359.435439 C254.683779,359.359676 254.590707,359.282585 254.498762,359.204166 L254.610137,359.298048 C254.516101,359.219709 254.423221,359.140007 254.331498,359.058943 L254.498762,359.204166 C254.411476,359.12972 254.325206,359.054077 254.239952,358.977237 L254.239649,358.976964 C254.062211,358.817037 253.888885,358.651635 253.719976,358.481029 C254.020403,357.915403 254.713738,357.477542 255.907148,357.265858 C260.812616,356.395741 266.874726,347.215272 273.43003,344.269765 C279.985334,341.324257 288.601874,344.361757 294.88078,342.317421 C297.525072,341.456472 298.504346,338.567303 298.635347,334.869515 Z" id="形状结合" fill="#426DAD"></path>
                    <path d="M212.623014,128.196664 L212.799616,127.485952 L213.492118,135.335014 C214.935467,151.258148 216.382798,164.499527 217.834112,175.059152 L219.114179,184.073115 C221.731036,202.92809 224.318188,225.164275 228.828632,231.883437 C229.663007,230.024843 232.606091,227.019374 237.657883,222.86703 C232.657653,229.674062 229.122613,239.732655 227.052764,253.042812 C223.99052,272.73455 233.482087,285.480336 234.805742,280.730185 L234.856112,280.522108 C235.837438,275.818135 244.600521,266.533171 249.484763,261.543445 L251.156646,259.845546 C255.32177,255.630312 237.353496,277.164769 236.279413,295.430702 C235.205331,313.696635 245.717695,345.132265 248.750507,342.174452 C251.78332,339.21664 258.131366,330.42289 263.424265,330.54828 C256.907783,334.996186 251.279843,344.45698 249.575443,350.391414 L249.20378,349.194013 C246.862033,342.057501 245.211656,344.778055 236.275898,318.718202 C226.524726,290.280312 223.770172,245.934018 223.504804,235.966249 L222.68346,234.191081 C215.139138,217.557883 218.855089,215.777359 216.054023,192.006874 L215.606527,188.31942 C214.778501,181.686502 213.9144,175.749934 213.110241,170.436686 L212.623014,128.196664 L212.623014,128.196664 Z" id="路径" fill="#34578B"></path>
                    <path d="M283.640244,275.691227 L283.643085,276.078358 C283.635052,278.591 284.496431,282.439056 285.813742,287.100111 L285.035356,288.582133 L284.246601,290.157265 C279.228632,300.433437 284.309882,306.561171 285.88957,312.020937 C287.469257,317.480702 275.875898,304.653358 278.449335,297.633827 C281.022773,290.614296 279.724335,287.102187 281.172773,281.572108 C281.763608,279.316321 282.58156,277.224472 283.626628,275.296562 L283.640244,275.691227 L283.640244,275.691227 Z M274.127855,225.775319 L273.937616,226.518593 C272.354214,232.158765 273.987026,239.62372 276.336645,247.405465 C274.258111,244.278947 272.152949,242.484874 270.02121,242.022499 C261.825116,240.244765 240.440741,257.170155 229.73332,269.821718 C234.201679,251.677577 258.662226,239.627187 264.849726,235.070937 C269.880941,231.366133 273.279626,224.818541 274.72538,217.816569 C274.819218,220.797466 274.657279,223.497909 274.127855,225.775319 Z M269.406666,184.128324 L268.967455,185.133437 C264.117469,196.019409 257.602564,207.090774 254.747967,214.120869 L254.015757,215.977102 C249.619246,226.880866 240.098554,243.517495 243.928241,230.608437 C247.891523,217.249062 256.85871,200.645937 260.263007,193.532655 L260.79388,192.393201 C262.990313,187.55907 266.010293,179.479982 267.989965,170.704868 L267.990351,170.969374 C267.935041,174.572007 268.539211,179.127195 269.406666,184.128324 Z M252.885114,94.8728551 L253.263398,96.6197646 C254.238206,101.195193 255.327698,106.009673 256.461039,110.915108 C255.478546,120.592768 253.125237,127.305993 251.159111,135.765181 L250.795429,137.37289 C247.655182,151.663338 240.997481,172.962355 233.497722,189.186581 L232.745038,190.79164 C224.940351,207.193202 237.700898,165.724062 243.928241,148.177577 C248.729425,134.649516 250.883597,107.089508 251.328453,88.3067591 C251.862509,90.3855492 252.378547,92.5722457 252.885114,94.8728551 L252.885114,94.8728551 Z" id="形状" fill="url(#linearGradient-13)"></path>
                    <path d="M204.092552,50.9863662 C208.289179,52.4541396 215.735273,59.7016006 219.613593,68.228749 C223.491913,76.7558974 223.603241,97.1166396 222.297187,108.249452 C220.991132,119.382265 217.986686,133.106093 216.020038,138.824843 C214.70894,142.637343 213.56519,147.022304 212.588788,151.979726 C209.92121,148.92621 209.20871,143.774452 210.451288,136.524452 C212.315155,125.649452 209.380762,69.0385423 205.192783,60.445755 C201.004804,51.8529678 199.895926,49.5185928 204.092552,50.9863662 Z" id="路径-692" fill="#2D4E81"></path>
                    <path d="M271.868964,356.05912 C274.644612,354.60453 288.320038,351.089198 292.023456,351.636464 C292.562451,351.716113 293.024211,351.801217 293.42946,351.8922 L293.225507,351.981874 C293.547382,355.46078 293.989179,358.427577 294.550898,360.882265 C283.039179,361.546695 274.47082,364.133414 268.84582,368.642421 C266.6884,370.532424 264.777717,368.524667 263.11377,362.61915 C265.478024,360.406646 269.795057,357.14596 271.868964,356.05912 Z" id="路径" fill="#265191"></path>
                    <path d="M118.416661,11.8423296 C116.904023,16.3240615 95.8841008,32.6660967 74.9719914,43.1107803 C54.059882,53.5554639 40.1016789,94.6521865 46.6243352,120.358437 C53.1469914,146.064687 43.7907414,197.68578 47.2946477,215.863905 C50.7985539,234.04203 50.8044133,250.512941 43.9782414,269.788905 C37.1520695,289.064869 39.9024602,304.752968 54.4876164,311.472499 C69.0727727,318.19203 115.171991,327.693593 141.618866,323.44203 C168.065741,319.190468 209.268866,315.838905 218.350898,301.652187 C227.432929,287.465468 219.368085,280.663905 217.059491,270.799062 C214.750898,260.934218 214.817695,251.880312 217.745038,227.437343 C220.672382,202.994374 212.170429,193.417812 215.12121,140.664687 C222.623554,104.606093 225.679804,74.8240615 213.346991,60.2646865 C201.014179,45.7053115 179.316913,34.8771865 172.82121,26.1924209 C168.490741,20.4025771 166.957148,16.7682021 168.220429,15.2892959 C143.632148,15.1900771 127.030892,14.0410884 118.416661,11.8423296 Z" id="路径" fill="url(#linearGradient-14)"></path>
                    <path d="M220.963913,281.971551 L220.962442,281.383467 L221.304901,282.344241 C223.115448,287.652836 223.630919,293.404453 218.350898,301.652187 C209.487711,315.497057 170.032784,319.022655 143.555737,323.136092 L141.618866,323.44203 C115.171991,327.693593 69.0727727,318.19203 54.4876164,311.472499 C46.0076251,307.56568 41.528263,300.627122 40.6057009,291.714355 C43.9722287,296.100053 50.3935776,300.778644 62.4083195,304.526796 L64.5744504,305.192733 C80.6103567,310.04392 83.9005411,309.145574 101.321809,309.409568 L106.550399,309.507973 C127.227724,309.795388 147.752593,306.635349 144.898415,308.368692 L144.415697,308.6205 C140.524773,310.489978 127.764537,314.087453 151.265418,309.630425 L172.195195,305.571276 C191.919363,301.792671 196.539442,301.205024 204.53151,300.340776 C214.017046,299.315027 220.835171,291.586558 220.963913,281.971551 Z" id="路径" fill="#244371"></path>
                    <path d="M198.838241,131.739687 C200.968485,131.739687 202.846558,133.08612 203.569648,135.072116 L203.569648,135.072116 L203.687936,135.396999 L203.749099,136.299347 C203.835079,137.6807 203.878241,139.068452 203.878241,140.461255 C203.878241,162.179022 193.392156,181.424636 177.251778,193.320934 L190.554634,216.81744 C193.842754,222.62568 191.843593,230.024764 186.089384,233.343758 C184.276211,234.389585 182.22404,234.939687 180.135716,234.939687 L180.135716,234.939687 L98.0207663,234.939687 C91.3933493,234.939687 86.0207663,229.516657 86.0207663,222.82701 C86.0207663,220.719079 86.5657501,218.647638 87.6018486,216.81744 L87.6018486,216.81744 L100.904705,193.320934 C84.7643272,181.424636 74.2782414,162.179022 74.2782414,140.461255 C74.2782414,139.068452 74.3214037,137.6807 74.4082653,136.285788 L74.4082653,136.285788 L74.4685465,135.396999 L74.5868348,135.072116 C75.3099249,133.08612 77.1879979,131.739687 79.3182414,131.739687 C80.6769135,131.739687 81.9554803,132.288158 82.8939485,133.24177 L82.8939485,133.24177 L83.2355203,133.588853 L83.4168847,134.042533 C89.4737478,149.193683 101.225096,160.996046 115.703452,167.178753 L126.57554,147.973067 C130.521284,141.00318 139.317591,138.581661 146.222642,142.564454 C148.455093,143.852118 150.305257,145.719655 151.580943,147.973067 L151.580943,147.973067 L162.453126,167.178789 C176.931695,160.99615 188.683537,149.193977 194.741069,134.043362 L194.741069,134.043362 L194.921279,133.592637 L195.259788,133.246962 C196.197122,132.289786 197.477649,131.739687 198.838241,131.739687 Z M173.263319,196.037893 C163.340092,202.270004 151.625634,205.869706 139.078241,205.869706 C126.530849,205.869706 114.816391,202.270004 104.893164,196.037893 L91.7694157,219.221268 C91.1477566,220.319387 90.8207663,221.562251 90.8207663,222.82701 C90.8207663,226.840798 94.0443161,230.094616 98.0207663,230.094616 L98.0207663,230.094616 L180.135716,230.094616 C181.38871,230.094616 182.620013,229.764555 183.707917,229.137059 C187.160442,227.145663 188.359939,222.706212 186.387067,219.221268 L186.387067,219.221268 Z M160.328729,173.192099 C153.872641,175.4535 146.98667,176.706901 139.877188,176.79437 L139.877188,176.79437 L139.078241,176.799284 C131.685548,176.799284 124.525158,175.538071 117.827489,173.191967 L107.277134,191.827692 C116.496794,197.655592 127.397736,201.024636 139.078241,201.024636 C150.758746,201.024636 161.659689,197.655592 170.879349,191.827692 Z M79.2649614,136.591056 L79.2349184,136.599739 C79.2218547,136.604598 79.209288,136.61057 79.197346,136.617555 L79.197346,136.617555 L79.1548903,137.372024 C79.1166089,138.141621 79.0926346,138.913366 79.08304,139.687001 L79.08304,139.687001 L79.0782414,140.461255 C79.0782414,160.376513 88.6013488,178.046645 103.301779,189.085061 L113.305146,171.413118 C98.3789103,164.880428 86.1927307,152.795047 79.5707019,137.318049 L79.5707019,137.318049 L79.2649614,136.591056 Z M198.892961,136.591056 L198.587099,137.319049 C191.964389,152.795514 179.777708,164.880673 164.851235,171.413246 L174.854704,189.085061 C189.555134,178.046645 199.078241,160.376513 199.078241,140.461255 C199.078241,139.169813 199.03823,137.88338 198.959201,136.617703 C198.947195,136.61057 198.934628,136.604598 198.921564,136.599739 L198.921564,136.599739 L198.892961,136.591056 Z M143.688965,146.685164 C139.109315,144.151804 133.344696,145.781365 130.743107,150.376895 L130.743107,150.376895 L120.253375,168.905391 C126.20878,170.89064 132.545544,171.954213 139.078241,171.954213 C145.610901,171.954213 151.94768,170.890642 157.903146,168.905411 L147.413376,150.376895 C146.562918,148.87462 145.329475,147.629596 143.841175,146.771153 L143.841175,146.771153 Z" id="形状结合备份" fill="#9BC3FF" fill-rule="nonzero"></path>
                    <path d="M190.72746,120.292226 L191.461129,121.434467 C198.003864,131.7403 209.207005,152.527094 214.887577,177.122937 C215.810981,194.09809 218.040059,203.923742 218.335561,214.817254 C216.014472,207.013612 213.930458,201.973005 210.07453,189.715858 L209.495656,187.881412 C205.028296,173.266382 213.049921,173.563905 190.72746,120.292226 Z" id="路径" fill="#214A85" opacity="0.5"></path>
                    <path d="M79.3996391,245.378319 C64.5540227,259.070937 46.6922876,267.088905 55.9641789,279.032655 C65.139488,290.851991 124.020806,295.336758 147.169076,293.759123 L149.16559,293.618506 C168.536848,292.415526 126.196288,302.302132 86.6796901,297.174545 L75.0990548,295.578603 C50.9755872,292.172941 42.6033573,289.969974 41.6779061,277.672665 C42.2520924,275.124484 43.0210081,272.491971 43.9782414,269.788905 C50.8044133,250.512941 50.7985539,234.04203 47.2946477,215.863905 C47.1311075,215.015466 46.9955824,214.094173 46.8851501,213.106062 C47.8052884,215.465842 48.8079616,217.714812 49.8696832,219.851293 L51.1226219,222.303573 C58.2692778,236.571089 62.5095856,259.373677 83.8252466,221.832567 L84.4899602,220.652187 C106.830016,180.659785 94.2452556,231.685701 79.3996391,245.378319 Z M216.615988,268.764731 C216.752423,269.442526 216.900311,270.118866 217.059491,270.799062 C217.502782,272.693285 218.15831,274.474562 218.863924,276.216868 C202.582298,289.303357 172.278754,290.059604 183.095626,287.463134 L183.436054,287.383437 C194.005572,284.967825 210.193537,278.325976 216.325893,269.215182 L216.615988,268.764731 Z M215.855936,245.919789 L215.812274,246.500071 C215.594383,249.545357 215.470539,252.233773 215.437601,254.670205 C209.170351,248.037894 195.603607,243.671566 188.238398,238.609999 L187.664255,238.206617 C180.02759,232.700939 206.503234,245.038966 215.855936,245.919789 Z M56.4183973,147.531969 C67.7565861,182.02083 74.1240901,223.367575 66.8813664,206.19828 C61.5122801,193.470551 54.3247999,162.905693 48.7894562,156.740724 C49.261567,143.572003 49.0663456,130.894004 46.8849268,121.435374 L46.6243352,120.358437 C44.4106262,111.634053 44.555984,101.136933 46.5316128,90.6669725 C46.1790833,105.296267 48.5422451,123.513958 55.1261597,143.648061 L56.4183973,147.531969 Z M187.495429,65.9571888 C198.080292,72.8460638 211.176106,103.688373 217.697676,127.495416 C217.012502,131.275573 216.257155,135.145867 215.446033,139.093753 C209.113681,99.5220755 196.913066,76.9208622 187.495429,65.9571888 Z" id="形状" fill="#183663" opacity="0.5"></path>
                    <path d="M135.025898,104.70453 C135.192304,135.149843 138.576746,177.203749 135.821634,200.494765 C133.066523,223.78578 126.393866,289.539687 145.93371,295.586562 C143.791523,289.553749 132.438818,278.064004 137.454023,241.002968 C142.469227,203.941932 140.934413,182.25297 154.884491,196.624062 C168.83457,210.995153 183.843866,228.899603 182.278241,221.432535 C180.712616,213.965468 157.346991,201.559999 148.630976,178.361562 C139.91496,155.163124 148.879804,109.944957 145.93371,94.5524779 C142.987616,79.159999 134.859491,74.2592178 135.025898,104.70453 Z" id="路径-720" fill="#214A85" opacity="0.5" transform="translate(157.428264, 188.984448) rotate(-1.000000) translate(-157.428264, -188.984448) "></path>
                    <path d="M125.878241,103.492812 C121.134491,118.20453 105.289135,138.466249 84.6774602,145.963905 C64.0657858,153.461562 96.1243352,149.151405 108.576679,136.886562 C121.029023,124.621718 127.256366,111.733437 125.878241,103.492812 Z" id="路径-723" fill="#214A85" opacity="0.5"></path>
                    <path d="M212.896991,40.7517959 C215.459882,42.8998428 222.948163,48.3338271 212.896991,52.8467178 C202.84582,57.3596084 175.417929,97.825624 154.012538,113.020155 C132.607148,128.214687 125.896991,118.492812 110.318085,103.195155 C94.7391789,87.897499 78.519828,69.9959365 75.1149602,52.5795303 C71.7100923,35.163124 59.1329289,37.5771865 62.7868352,29.556874 C66.4407414,21.5365615 71.1540227,20.4303115 79.1298039,16.5584365 C87.1055852,12.6865615 86.3391789,3.85179588 92.3555852,0.435780257 C98.3719914,-2.98023537 141.293085,14.884999 161.709491,12.4217178 C182.125898,9.95843651 189.316523,0.590467757 196.832929,7.35687401 C204.349335,14.1232803 210.334101,38.603749 212.896991,40.7517959 Z" id="路径-724" fill="url(#linearGradient-15)"></path>
                    <path d="M85.1808639,10.7449331 L85.2687621,10.7425371 C90.3636521,10.6340467 97.5898716,11.1486939 102.00023,11.8423296 C109.24582,12.981874 124.352602,21.797985 143.606366,24.8517959 L146.769624,25.3435263 C163.10034,27.8209933 165.349561,27.0475891 176.990741,23.5826553 C189.344648,19.9055826 199.321991,21.0490615 200.837226,23.7678115 C194.622456,21.8043832 187.751833,23.5836799 175.066618,28.8554255 L173.068476,29.6939834 C159.091523,35.6119521 150.672773,33.1359609 140.83957,31.5572646 C131.006366,29.9785683 112.157929,19.731874 100.016132,16.366249 C93.0083762,14.4237459 87.052472,13.8148063 83.3665724,13.301847 C84.0664859,12.4949652 84.6550789,11.6316903 85.1808639,10.7449331 Z" id="路径" fill="#5C86BB"></path>
                    <path d="M77.9338905,37.6451553 C99.6235539,39.9303115 120.95871,49.9053115 125.878241,55.7529678 C130.797773,61.600624 114.5605,46.7862568 102.00023,48.9668779 C89.4399602,51.147499 77.741228,57.5080546 89.8179378,74.3797299 C101.894648,91.2514053 132.931458,113.739687 145.31496,108.569374 C157.698462,103.399062 161.55307,98.950624 170.851593,78.1545303 C180.150116,57.3584365 193.462012,44.1279678 205.192783,44.725624 C210.364155,44.9890937 212.862894,43.5928496 212.689001,40.5368917 C212.760919,40.6244972 212.83012,40.6957485 212.896991,40.7517959 C213.8506,41.5510483 215.48611,42.8052257 216.646278,44.2976093 C216.181431,45.7344969 215.335272,47.2906704 214.107545,48.9668779 C212.998229,50.4814207 211.579641,52.4602676 209.937583,54.767301 C198.179754,64.1229086 173.579845,99.1303804 154.012538,113.020155 C132.607148,128.214687 125.896991,118.492812 110.318085,103.195155 C94.7391789,87.897499 78.519828,69.9959365 75.1149602,52.5795303 C71.8645102,35.9529948 60.2548651,37.3990084 62.3874813,30.5865268 C63.7642694,33.9405716 68.3617739,36.6366665 77.9338905,37.6451553 Z" id="形状结合" fill="#44679B"></path>
                    <path d="M170.851593,60.4932805 C164.097773,61.722499 161.955429,67.8627421 154.012538,74.3797299 C146.069648,80.8967178 131.165741,74.4438515 117.253241,67.8373428 C103.340741,61.230834 90.9048039,60.9985662 106.230585,70.6968607 C121.556366,80.3951553 123.28337,86.7488707 136.695649,87.6700598 C150.107929,88.591249 127.423614,93.6183943 134.656006,94.5524779 C141.888398,95.4865615 155.749931,93.1004332 158.217602,87.6700598 C160.685273,82.2396865 177.605414,59.264062 170.851593,60.4932805 Z" id="路径-728" fill="#446BA5"></path>
                    <path d="M160.967583,12.5007865 C161.143554,12.732261 161.292938,12.9586026 161.42189,13.1891724 C162.498214,15.1136757 162.090728,16.7864628 159.835843,20.4948969 L159.835843,20.4948969 L158.965131,21.9011995 C158.058554,23.4420097 158.152898,24.1889081 159.029509,25.2313757 C159.252498,25.4965541 160.205071,26.4537198 160.883906,27.1523247 L160.883906,27.1523247 L161.479203,27.7790482 C164.043324,30.6406943 165.347017,33.9691694 165.229302,39.0662209 C164.913816,52.7267788 159.409289,73.5410496 153.812117,81.6299278 C152.559182,83.4406338 151.262549,84.7906129 149.824072,85.8972436 C149.019835,86.5159491 146.892609,87.8679335 146.910659,87.8551871 L146.910659,87.8551871 L146.614051,88.0831857 C145.710637,88.851472 145.66688,89.7647213 146.688537,92.6845546 L146.688537,92.6845546 L147.214391,94.1533892 C149.843942,101.99361 147.712447,113.056885 142.691925,119.32093 C140.996314,119.934641 139.4073,120.325109 137.898213,120.51351 C144.343268,116.412814 147.927564,102.964751 144.776573,94.4560281 L144.776573,94.4560281 L144.575725,93.9025382 C142.976238,89.3962859 143.235045,87.512677 145.52626,85.8947184 C145.576988,85.8588964 146.865326,85.0393097 147.754957,84.4282813 L147.754957,84.4282813 L148.360675,83.9950165 C149.605498,83.0373651 150.729287,81.867341 151.838534,80.264289 C157.138183,72.6053828 162.524458,52.2382563 162.829942,39.0108084 C162.933162,34.5413673 161.859298,31.7996709 159.691773,29.3806393 C159.384728,29.037966 158.220879,27.8755399 157.566522,27.1851281 L157.566522,27.1851281 L157.192632,26.7760059 C155.571078,24.8476513 155.469187,22.925198 157.146947,20.2748021 C159.507619,16.545595 159.893205,15.3726485 159.327227,14.3606621 C159.088327,13.9335012 158.657856,13.439823 157.906016,12.7301105 L157.906016,12.7301105 L157.82046,12.6544228 C158.730849,12.6471841 159.611266,12.6117331 160.457977,12.5454533 Z" id="形状结合" fill="url(#linearGradient-16)"></path>
                    <path d="M161.709491,12.4217178 C182.125898,9.95843651 189.316523,0.590467757 196.832929,7.35687401 C198.437094,8.80097249 199.971494,11.0519263 201.417755,13.7204387 C200.607819,13.9471415 199.671702,13.86895 198.692272,13.3896865 C191.693502,9.96498586 191.055585,10.5865615 175.872773,16.8150771 C160.68996,23.0435928 135.26496,18.2904678 114.463007,11.5510146 C97.2695217,5.98063922 90.1596606,6.87969372 86.7450142,7.7866839 C88.1921691,4.85717961 89.5211463,2.0451276 92.3555852,0.435780257 C98.3719914,-2.98023537 141.293085,14.884999 161.709491,12.4217178 Z" id="形状结合" fill="#B1CEFA"></path>
                </g>
            </g>
        </g>
    </g>
</svg>